<svg width="172" height="520" viewBox="0 0 172 520" fill="none" xmlns="http://www.w3.org/2000/svg">
<path d="M94.0908 48.8635L103.112 74.4221L88.0763 104.492L62.5177 60.8911L94.0908 48.8635Z" fill="#A0616A"/>
<path d="M170.017 357.829C165.07 364.76 126.927 404.873 101.412 431.515C94.331 438.897 88.2269 445.257 84.0774 449.572C80.4388 453.346 78.3039 455.556 78.3039 455.556L66.7723 431.44L61.7656 420.976L61.8408 420.885L64.9831 416.871L94.9475 378.532L126.415 338.284L100.856 287.166L132.429 282.655L153.418 283.888L157.989 284.159C157.989 284.159 177.534 347.305 170.017 357.829Z" fill="#2F2E41"/>
<path d="M81.3109 481.115C79.3564 483.07 75.9585 480.574 72.2749 476.304C64.6522 467.463 55.7516 451.045 55.7516 451.045L45.2273 428.493C46.3549 421.758 56.6688 420.901 61.8408 420.886C63.5998 420.886 64.7726 420.976 64.7726 420.976L65.6447 422.269L84.0774 449.572C84.0774 449.572 87.3249 475.101 81.3109 481.115Z" fill="#2F2E41"/>
<path opacity="0.2" d="M84.0773 449.572C84.0773 449.572 87.3248 475.101 81.3109 481.115C79.3564 483.07 75.9584 480.574 72.2749 476.304L66.7722 431.44L65.6446 422.269L64.983 416.871L94.9475 378.532L101.412 431.515C94.331 438.897 88.2268 445.257 84.0773 449.572Z" fill="black"/>
<path opacity="0.2" d="M104.901 295.255L100.856 287.166L132.429 282.655L153.418 283.888L153.478 284.158L104.901 295.255Z" fill="black"/>
<path d="M64.7731 218.005H54.2476L57.2554 317.236L78.304 488.633H112.884L97.8494 365.346L105.367 296.187L157.989 284.158L142.953 214.999L64.7731 218.005Z" fill="#2F2E41"/>
<path d="M81.3109 484.122C81.3109 484.122 78.304 505.171 79.8074 506.674C81.3109 508.178 82.8144 509.681 82.8144 512.688C82.8144 515.695 100.856 523.213 109.877 517.199C118.898 511.185 112.884 502.164 112.884 502.164L103.863 484.122H81.3109Z" fill="#2F2E41"/>
<path d="M75.297 67.6568C89.413 67.6568 100.856 56.2136 100.856 42.0976C100.856 27.9816 89.413 16.5383 75.297 16.5383C61.181 16.5383 49.7378 27.9816 49.7378 42.0976C49.7378 56.2136 61.181 67.6568 75.297 67.6568Z" fill="#A0616A"/>
<path d="M90.3319 82.6921L70.6673 74.7932L58.7588 222.515L141.45 228.53L112.884 76.6777L100.105 64.6793L90.3319 82.6921Z" fill="#E6E6E6"/>
<path d="M68.0511 70.3311L52.7447 82.6917L24.1785 97.7265L34.7028 192.446L36.2063 246.571C36.2063 246.571 16.661 294.683 31.6959 306.711C46.7307 318.739 63.269 314.228 60.262 288.669C57.2551 263.11 51.2411 245.068 79.8073 218.005C108.374 190.942 83.3575 63.9845 68.0511 70.3311Z" fill="#2F2E41"/>
<path d="M98.5508 61.5007L117.395 73.6707L142.954 87.2021L162.499 303.704L118.898 317.235C118.898 317.235 94.7419 67.3726 98.5508 61.5007Z" fill="#2F2E41"/>
<path d="M147.464 240.558C147.464 240.558 124.912 275.138 141.45 275.138C157.989 275.138 162.499 246.572 162.499 246.572L147.464 240.558Z" fill="#A0616A"/>
<path d="M54.2482 240.558C54.2482 240.558 76.8005 275.138 60.2622 275.138C43.7238 275.138 39.2134 246.572 39.2134 246.572L54.2482 240.558Z" fill="#A0616A"/>
<path d="M76.8004 4.51045L69.283 0L70.7865 3.00697L64.7725 1.50348L66.276 3.00697L58.7586 1.50348L61.7656 4.51045C61.7656 4.51045 49.7377 4.51045 48.2342 16.5383L40.7168 18.0418L43.7238 22.5523V27.0627L46.7307 30.0697V34.5802L49.7377 42.0976L52.7447 31.5732C52.7447 31.5732 66.2761 34.5802 72.29 22.5523C72.29 22.5523 73.7935 27.0628 81.3109 25.5593L93.3387 46.6081C93.3387 46.6081 94.8422 37.2768 100.104 35.9285C105.367 34.5802 102.36 22.5523 102.36 22.5523C102.36 22.5523 97.8492 18.0419 97.8492 15.0349C97.8492 12.0279 93.3388 9.02096 90.3318 9.02096C87.3248 9.02096 79.8074 3.00701 79.8074 3.00701L76.8004 4.51045Z" fill="#2F2E41"/>
<path d="M36.2064 99.23L29.2078 95.0796L24.1785 97.7265C24.1785 97.7265 18.1646 100.734 16.6611 111.258C15.1576 121.782 0.122724 186.432 0.122724 186.432C0.122724 186.432 -1.38071 196.956 6.13671 214.998C13.6541 233.04 42.2203 264.613 42.2203 264.613L69.2831 242.061L28.689 192.446L39.2133 151.852L36.2064 99.23Z" fill="#2F2E41"/>
<path d="M130.926 87.2021H142.953L162.499 160.873L168.513 252.585L139.947 242.061V175.908L130.926 87.2021Z" fill="#2F2E41"/>
</svg>
