<svg width="459" height="250" viewBox="0 0 459 250" fill="none" xmlns="http://www.w3.org/2000/svg">
<path d="M61.7232 130.304H47.0337C46.5172 130.304 46.0218 130.509 45.6566 130.872C45.2914 131.236 45.0862 131.73 45.0862 132.244V138.668C45.0862 139.182 45.2914 139.676 45.6566 140.04C46.0218 140.403 46.5172 140.608 47.0337 140.608H49.468V150.232H59.2889V140.608H61.7232C62.2397 140.608 62.735 140.403 63.1003 140.04C63.4655 139.676 63.6707 139.182 63.6707 138.668V132.244C63.6707 131.73 63.4655 131.236 63.1003 130.872C62.735 130.509 62.2397 130.304 61.7232 130.304Z" fill="#6C63FF"/>
<path d="M76.4361 189.091C67.4398 175.976 62.8408 160.362 63.2978 144.484C63.3059 144.118 63.1866 143.76 62.96 143.471C62.7333 143.182 62.4134 142.981 62.0545 142.9V140.125H46.5405V142.862H46.3267C46.1079 142.862 45.8915 142.907 45.691 142.995C45.4906 143.082 45.3103 143.21 45.1615 143.369C45.0127 143.529 44.8986 143.718 44.8263 143.924C44.754 144.129 44.7251 144.348 44.7413 144.565C45.9635 161.538 41.8364 176.76 32.3599 190.229C31.8146 191.003 31.536 191.932 31.5659 192.878L33.2623 245.154C33.3031 246.32 33.7943 247.425 34.6335 248.239C35.4726 249.053 36.5949 249.512 37.766 249.522H72.8564C74.0408 249.512 75.1747 249.042 76.0165 248.212C76.8582 247.382 77.3413 246.257 77.3628 245.077L78.0165 194.321C78.0358 192.458 77.4845 190.633 76.4361 189.091Z" fill="#D3CFFF"/>
<path opacity="0.2" d="M58.661 132.397C58.661 133.507 58.2183 134.572 57.4304 135.357C56.6424 136.142 55.5736 136.583 54.4593 136.583C53.3449 136.583 52.2762 136.142 51.4882 135.357C50.7002 134.572 50.2576 133.507 50.2576 132.397" fill="black"/>
<path d="M70.8812 206.455H66.632C66.2263 203.833 64.892 201.441 62.8703 199.714C60.8486 197.987 58.2731 197.037 55.6096 197.037C52.9461 197.037 50.3706 197.987 48.3489 199.714C46.3272 201.441 44.9929 203.833 44.5872 206.455H40.3377C39.8856 206.455 39.4388 206.553 39.028 206.741C38.6172 206.929 38.2521 207.203 37.9577 207.545C37.6634 207.887 37.4467 208.288 37.3225 208.721C37.1983 209.154 37.1696 209.609 37.2384 210.054L41.8539 239.942H68.3571L73.9633 210.155C74.0482 209.704 74.0323 209.239 73.9167 208.795C73.801 208.351 73.5885 207.937 73.2943 207.584C73 207.231 72.6312 206.947 72.2141 206.751C71.7971 206.556 71.342 206.455 70.8812 206.455Z" fill="#6C63FF"/>
<path d="M427.962 158.415L426.942 198.999L425.68 249.326H382.714L381.235 190.362L380.432 158.415H427.962Z" fill="#E6E6E6"/>
<path d="M407.049 136.823H400.965V217.128H407.049V136.823Z" fill="#6C63FF"/>
<path d="M424.92 188.995L423.769 246.679H384.606L383.258 179.096C386.786 178.109 390.481 177.856 394.111 178.353C397.742 178.851 401.231 180.088 404.361 181.987C410.904 185.843 418.255 187.918 424.92 188.995Z" fill="#FFAB50"/>
<path d="M394.301 195.489H388.719V201.05H394.301V195.489Z" fill="#E6E6E6"/>
<path d="M398.103 184.125H392.521V189.686H398.103V184.125Z" fill="#E6E6E6"/>
<path d="M410.091 191.992L405.607 188.679L402.281 193.146L406.765 196.459L410.091 191.992Z" fill="#E6E6E6"/>
<path d="M420.176 201.846L415.693 198.533L412.367 203L416.851 206.313L420.176 201.846Z" fill="#E6E6E6"/>
<path d="M403.066 207.528L398.583 204.215L395.257 208.682L399.741 211.995L403.066 207.528Z" fill="#E6E6E6"/>
<path d="M416.174 181.9C416.804 181.9 417.315 181.391 417.315 180.764C417.315 180.136 416.804 179.627 416.174 179.627C415.544 179.627 415.033 180.136 415.033 180.764C415.033 181.391 415.544 181.9 416.174 181.9Z" fill="#3F3D56"/>
<path d="M392.98 174.324C393.61 174.324 394.121 173.815 394.121 173.188C394.121 172.56 393.61 172.051 392.98 172.051C392.35 172.051 391.839 172.56 391.839 173.188C391.839 173.815 392.35 174.324 392.98 174.324Z" fill="#3F3D56"/>
<path d="M412.372 166.369C413.002 166.369 413.513 165.86 413.513 165.233C413.513 164.605 413.002 164.096 412.372 164.096C411.742 164.096 411.231 164.605 411.231 165.233C411.231 165.86 411.742 166.369 412.372 166.369Z" fill="#3F3D56"/>
<path d="M354.223 124.49C354.223 192.966 298.502 248.48 229.763 248.48C161.023 248.48 105.302 192.966 105.302 124.49C105.302 56.014 161.023 0.5 229.763 0.5C298.502 0.5 354.223 56.014 354.223 124.49Z" fill="white" stroke="black"/>
<path opacity="0.2" d="M229.763 215.356C208.661 215.355 188.212 208.066 171.901 194.73C155.589 181.393 144.424 162.835 140.307 142.217C136.19 121.599 139.377 100.197 149.325 81.6567C159.272 63.117 175.364 48.5868 194.859 40.5421C214.355 32.4973 236.047 31.4357 256.24 37.5382C276.433 43.6406 293.877 56.5295 305.601 74.0088C317.324 91.488 322.601 112.476 320.533 133.397C318.464 154.318 309.179 173.877 294.257 188.742C285.808 197.206 275.756 203.916 264.686 208.485C253.615 213.053 241.745 215.388 229.763 215.356ZM229.763 39.2284C182.571 39.2284 144.179 77.4765 144.179 124.49C144.179 171.503 182.571 209.752 229.763 209.752C276.954 209.752 315.347 171.503 315.347 124.49C315.347 77.4765 276.954 39.2284 229.763 39.2284Z" fill="black"/>
<path d="M229.763 212.554C278.583 212.554 318.159 173.126 318.159 124.49C318.159 75.8538 278.583 36.4263 229.763 36.4263C180.942 36.4263 141.366 75.8538 141.366 124.49C141.366 173.126 180.942 212.554 229.763 212.554Z" fill="#D5D5D5"/>
<path d="M164.024 89.277C163.353 87.9689 162.948 86.542 162.832 85.0779C162.715 83.6139 162.89 82.1412 163.345 80.7443C163.8 79.3473 164.527 78.0535 165.484 76.9366C166.442 75.8198 167.611 74.9019 168.925 74.2354C170.238 73.5689 171.671 73.1669 173.141 73.0524C174.61 72.9379 176.088 73.1131 177.49 73.568C178.892 74.0229 180.19 74.7486 181.31 75.7035C182.43 76.6585 183.35 77.824 184.018 79.1335L208.992 127.991C209.663 129.299 210.068 130.726 210.184 132.19C210.301 133.654 210.126 135.126 209.671 136.523C209.216 137.92 208.489 139.214 207.532 140.331C206.574 141.448 205.405 142.366 204.091 143.032C202.778 143.699 201.345 144.101 199.875 144.215C198.406 144.33 196.928 144.154 195.526 143.7C194.124 143.245 192.826 142.519 191.706 141.564C190.586 140.609 189.666 139.444 188.998 138.134L164.024 89.277Z" fill="#FF6584"/>
<path opacity="0.2" d="M166.81 94.7264L165.657 92.4715C171.41 88.0185 178.165 84.7437 185.651 82.328L186.804 84.5829C178.701 86.2638 171.808 89.3746 166.81 94.7264Z" fill="black"/>
<path opacity="0.2" d="M172.189 105.249L171.036 102.995C176.788 98.5416 183.544 95.2668 191.03 92.8511L192.183 95.106C184.08 96.7869 177.187 99.8977 172.189 105.249Z" fill="black"/>
<path opacity="0.2" d="M177.568 115.773L176.415 113.518C182.168 109.065 188.923 105.79 196.409 103.374L197.562 105.629C189.459 107.31 182.566 110.421 177.568 115.773Z" fill="black"/>
<path opacity="0.2" d="M182.947 126.296L181.794 124.041C187.547 119.588 194.302 116.313 201.788 113.897L202.941 116.152C194.838 117.833 187.945 120.944 182.947 126.296Z" fill="black"/>
<path opacity="0.2" d="M188.326 136.819L187.173 134.564C192.926 130.111 199.681 126.836 207.167 124.42L208.32 126.675C200.218 128.356 193.324 131.467 188.326 136.819Z" fill="black"/>
<path d="M145.287 107.567C144.617 106.259 144.212 104.832 144.096 103.368C143.98 101.904 144.154 100.432 144.609 99.0351C145.064 97.6382 145.791 96.3445 146.749 95.2277C147.706 94.111 148.875 93.1932 150.189 92.5267C151.502 91.8603 152.935 91.4583 154.405 91.3438C155.874 91.2292 157.352 91.4044 158.754 91.8592C160.156 92.3139 161.453 93.0395 162.574 93.9943C163.694 94.9491 164.614 96.1145 165.281 97.4238L190.256 146.281C191.602 148.922 191.841 151.987 190.92 154.804C189.999 157.62 187.994 159.957 185.344 161.301C182.695 162.646 179.618 162.887 176.79 161.973C173.962 161.058 171.614 159.063 170.262 156.424L145.287 107.567Z" fill="#FF6584"/>
<path opacity="0.2" d="M148.073 113.017L146.92 110.762C152.673 106.309 159.428 103.034 166.914 100.618L168.067 102.873C159.965 104.554 153.071 107.665 148.073 113.017Z" fill="black"/>
<path opacity="0.2" d="M153.452 123.54L152.3 121.285C158.052 116.832 164.807 113.557 172.294 111.141L173.446 113.396C165.344 115.077 158.45 118.188 153.452 123.54Z" fill="black"/>
<path opacity="0.2" d="M158.831 134.063L157.679 131.808C163.431 127.355 170.186 124.08 177.673 121.664L178.825 123.919C170.723 125.6 163.83 128.711 158.831 134.063Z" fill="black"/>
<path opacity="0.2" d="M164.21 144.586L163.058 142.331C168.81 137.878 175.565 134.603 183.052 132.188L184.204 134.442C176.102 136.123 169.208 139.234 164.21 144.586Z" fill="black"/>
<path opacity="0.2" d="M169.589 155.109L168.437 152.854C174.189 148.401 180.944 145.126 188.431 142.711L189.583 144.966C181.481 146.646 174.588 149.757 169.589 155.109Z" fill="black"/>
<path d="M288.828 127.292L288.907 127.292C291.597 127.315 294.231 126.529 296.466 125.037C298.701 123.546 300.433 121.418 301.436 118.931C303.498 113.737 304.538 108.196 304.497 102.611C304.357 78.9692 285.051 59.5741 261.322 59.2471C251.216 59.1061 241.372 62.4509 233.459 68.7144C225.546 74.9779 220.051 83.7747 217.904 93.6137C215.758 103.453 217.093 113.728 221.682 122.699C226.272 131.669 233.834 138.783 243.087 142.833C245.533 143.912 248.248 144.229 250.877 143.743C253.507 143.257 255.927 141.991 257.822 140.111C261.885 136.042 266.717 132.814 272.038 130.614C277.36 128.414 283.066 127.285 288.828 127.292Z" fill="#F2F2F2"/>
<path d="M266.327 114.082C274.316 114.082 280.792 107.631 280.792 99.672C280.792 91.7134 274.316 85.2616 266.327 85.2616C258.338 85.2616 251.862 91.7134 251.862 99.672C251.862 107.631 258.338 114.082 266.327 114.082Z" fill="#F9A825"/>
<path d="M234.889 98.0516C235.83 98.0516 236.593 97.2915 236.593 96.354C236.593 95.4164 235.83 94.6563 234.889 94.6563C233.948 94.6563 233.185 95.4164 233.185 96.354C233.185 97.2915 233.948 98.0516 234.889 98.0516Z" fill="#3F3D56"/>
<path d="M178.637 99.6527C179.578 99.6527 180.341 98.8927 180.341 97.9551C180.341 97.0175 179.578 96.2575 178.637 96.2575C177.696 96.2575 176.933 97.0175 176.933 97.9551C176.933 98.8927 177.696 99.6527 178.637 99.6527Z" fill="#3F3D56"/>
<path d="M243.971 80.4581C244.912 80.4581 245.675 79.6981 245.675 78.7605C245.675 77.823 244.912 77.0629 243.971 77.0629C243.03 77.0629 242.267 77.823 242.267 78.7605C242.267 79.6981 243.03 80.4581 243.971 80.4581Z" fill="#3F3D56"/>
<path d="M243.923 129.39C244.864 129.39 245.627 128.63 245.627 127.692C245.627 126.755 244.864 125.995 243.923 125.995C242.981 125.995 242.219 126.755 242.219 127.692C242.219 128.63 242.981 129.39 243.923 129.39Z" fill="#3F3D56"/>
<path d="M277.674 76.952C278.615 76.952 279.378 76.1919 279.378 75.2544C279.378 74.3168 278.615 73.5568 277.674 73.5568C276.733 73.5568 275.97 74.3168 275.97 75.2544C275.97 76.1919 276.733 76.952 277.674 76.952Z" fill="#3F3D56"/>
<path d="M167.58 123.386C168.521 123.386 169.284 122.625 169.284 121.688C169.284 120.75 168.521 119.99 167.58 119.99C166.639 119.99 165.876 120.75 165.876 121.688C165.876 122.625 166.639 123.386 167.58 123.386Z" fill="#3F3D56"/>
<path d="M180.036 147.803C180.977 147.803 181.74 147.043 181.74 146.106C181.74 145.168 180.977 144.408 180.036 144.408C179.095 144.408 178.332 145.168 178.332 146.106C178.332 147.043 179.095 147.803 180.036 147.803Z" fill="#3F3D56"/>
<path d="M258.291 155.713C261.841 155.713 264.72 152.845 264.72 149.308C264.72 145.771 261.841 142.903 258.291 142.903C254.74 142.903 251.862 145.771 251.862 149.308C251.862 152.845 254.74 155.713 258.291 155.713Z" fill="#FF6584"/>
<path opacity="0.2" d="M263.112 149.708C263.112 150.982 262.604 152.204 261.7 153.105C260.796 154.006 259.569 154.512 258.291 154.512C257.012 154.512 255.785 154.006 254.881 153.105C253.977 152.204 253.469 150.982 253.469 149.708" fill="black"/>
<path opacity="0.2" d="M253.469 148.908C253.469 147.634 253.977 146.412 254.881 145.511C255.785 144.61 257.012 144.104 258.291 144.104C259.569 144.104 260.796 144.61 261.7 145.511C262.604 146.412 263.112 147.634 263.112 148.908" fill="black"/>
<path d="M255.88 147.707C256.102 147.707 256.282 147.438 256.282 147.106C256.282 146.775 256.102 146.506 255.88 146.506C255.658 146.506 255.478 146.775 255.478 147.106C255.478 147.438 255.658 147.707 255.88 147.707Z" fill="#FF6584"/>
<path d="M258.291 146.906C258.513 146.906 258.693 146.637 258.693 146.306C258.693 145.974 258.513 145.705 258.291 145.705C258.069 145.705 257.889 145.974 257.889 146.306C257.889 146.637 258.069 146.906 258.291 146.906Z" fill="#FF6584"/>
<path d="M258.291 152.11C258.513 152.11 258.693 151.841 258.693 151.509C258.693 151.178 258.513 150.909 258.291 150.909C258.069 150.909 257.889 151.178 257.889 151.509C257.889 151.841 258.069 152.11 258.291 152.11Z" fill="#FF6584"/>
<path d="M260.702 148.908C260.923 148.908 261.103 148.639 261.103 148.307C261.103 147.976 260.923 147.707 260.702 147.707C260.48 147.707 260.3 147.976 260.3 148.307C260.3 148.639 260.48 148.908 260.702 148.908Z" fill="#FF6584"/>
<path d="M260.3 153.311C260.522 153.311 260.702 153.042 260.702 152.71C260.702 152.379 260.522 152.11 260.3 152.11C260.078 152.11 259.898 152.379 259.898 152.71C259.898 153.042 260.078 153.311 260.3 153.311Z" fill="#FF6584"/>
<path d="M255.478 151.309C255.7 151.309 255.88 151.041 255.88 150.709C255.88 150.377 255.7 150.108 255.478 150.108C255.256 150.108 255.076 150.377 255.076 150.709C255.076 151.041 255.256 151.309 255.478 151.309Z" fill="#FF6584"/>
<path d="M271.148 138.5C274.699 138.5 277.577 135.633 277.577 132.095C277.577 128.558 274.699 125.691 271.148 125.691C267.598 125.691 264.719 128.558 264.719 132.095C264.719 135.633 267.598 138.5 271.148 138.5Z" fill="#FF6584"/>
<path opacity="0.2" d="M275.97 132.496C275.97 133.77 275.462 134.991 274.558 135.892C273.653 136.793 272.427 137.299 271.148 137.299C269.87 137.299 268.643 136.793 267.739 135.892C266.835 134.991 266.327 133.77 266.327 132.496" fill="black"/>
<path opacity="0.2" d="M266.327 131.695C266.327 130.421 266.835 129.199 267.739 128.299C268.643 127.398 269.87 126.892 271.148 126.892C272.427 126.892 273.653 127.398 274.558 128.299C275.462 129.199 275.97 130.421 275.97 131.695" fill="black"/>
<path d="M268.738 130.494C268.959 130.494 269.139 130.225 269.139 129.894C269.139 129.562 268.959 129.293 268.738 129.293C268.516 129.293 268.336 129.562 268.336 129.894C268.336 130.225 268.516 130.494 268.738 130.494Z" fill="#FF6584"/>
<path d="M271.148 129.694C271.37 129.694 271.55 129.425 271.55 129.093C271.55 128.762 271.37 128.493 271.148 128.493C270.926 128.493 270.747 128.762 270.747 129.093C270.747 129.425 270.926 129.694 271.148 129.694Z" fill="#FF6584"/>
<path d="M271.148 134.897C271.37 134.897 271.55 134.629 271.55 134.297C271.55 133.965 271.37 133.697 271.148 133.697C270.926 133.697 270.747 133.965 270.747 134.297C270.747 134.629 270.926 134.897 271.148 134.897Z" fill="#FF6584"/>
<path d="M273.559 131.695C273.781 131.695 273.961 131.426 273.961 131.095C273.961 130.763 273.781 130.494 273.559 130.494C273.337 130.494 273.157 130.763 273.157 131.095C273.157 131.426 273.337 131.695 273.559 131.695Z" fill="#FF6584"/>
<path d="M273.157 136.098C273.379 136.098 273.559 135.83 273.559 135.498C273.559 135.166 273.379 134.897 273.157 134.897C272.936 134.897 272.756 135.166 272.756 135.498C272.756 135.83 272.936 136.098 273.157 136.098Z" fill="#FF6584"/>
<path d="M268.336 134.097C268.558 134.097 268.737 133.828 268.737 133.496C268.737 133.165 268.558 132.896 268.336 132.896C268.114 132.896 267.934 133.165 267.934 133.496C267.934 133.828 268.114 134.097 268.336 134.097Z" fill="#FF6584"/>
<path d="M284.006 147.306C287.557 147.306 290.435 144.439 290.435 140.902C290.435 137.365 287.557 134.497 284.006 134.497C280.455 134.497 277.577 137.365 277.577 140.902C277.577 144.439 280.455 147.306 284.006 147.306Z" fill="#6C63FF"/>
<path opacity="0.2" d="M288.828 141.302C288.828 142.576 288.32 143.798 287.415 144.699C286.511 145.6 285.285 146.106 284.006 146.106C282.727 146.106 281.501 145.6 280.597 144.699C279.692 143.798 279.184 142.576 279.184 141.302" fill="black"/>
<path opacity="0.2" d="M279.184 140.502C279.184 139.228 279.692 138.006 280.597 137.105C281.501 136.204 282.727 135.698 284.006 135.698C285.285 135.698 286.511 136.204 287.415 137.105C288.32 138.006 288.828 139.228 288.828 140.502" fill="black"/>
<path d="M281.595 139.301C281.817 139.301 281.997 139.032 281.997 138.7C281.997 138.369 281.817 138.1 281.595 138.1C281.373 138.1 281.193 138.369 281.193 138.7C281.193 139.032 281.373 139.301 281.595 139.301Z" fill="#6C63FF"/>
<path d="M284.006 138.5C284.228 138.5 284.408 138.231 284.408 137.9C284.408 137.568 284.228 137.299 284.006 137.299C283.784 137.299 283.604 137.568 283.604 137.9C283.604 138.231 283.784 138.5 284.006 138.5Z" fill="#6C63FF"/>
<path d="M284.006 143.704C284.228 143.704 284.408 143.435 284.408 143.103C284.408 142.772 284.228 142.503 284.006 142.503C283.784 142.503 283.604 142.772 283.604 143.103C283.604 143.435 283.784 143.704 284.006 143.704Z" fill="#6C63FF"/>
<path d="M286.417 140.502C286.639 140.502 286.819 140.233 286.819 139.901C286.819 139.569 286.639 139.301 286.417 139.301C286.195 139.301 286.015 139.569 286.015 139.901C286.015 140.233 286.195 140.502 286.417 140.502Z" fill="#6C63FF"/>
<path d="M286.015 144.905C286.237 144.905 286.417 144.636 286.417 144.304C286.417 143.973 286.237 143.704 286.015 143.704C285.793 143.704 285.613 143.973 285.613 144.304C285.613 144.636 285.793 144.905 286.015 144.905Z" fill="#6C63FF"/>
<path d="M281.193 142.903C281.415 142.903 281.595 142.634 281.595 142.303C281.595 141.971 281.415 141.702 281.193 141.702C280.971 141.702 280.792 141.971 280.792 142.303C280.792 142.634 280.971 142.903 281.193 142.903Z" fill="#6C63FF"/>
<path d="M251.862 148.107C255.412 148.107 258.291 145.24 258.291 141.702C258.291 138.165 255.412 135.298 251.862 135.298C248.311 135.298 245.433 138.165 245.433 141.702C245.433 145.24 248.311 148.107 251.862 148.107Z" fill="#6C63FF"/>
<path opacity="0.2" d="M256.684 142.103C256.684 143.377 256.176 144.598 255.271 145.499C254.367 146.4 253.141 146.906 251.862 146.906C250.583 146.906 249.357 146.4 248.452 145.499C247.548 144.598 247.04 143.377 247.04 142.103" fill="black"/>
<path opacity="0.2" d="M247.04 141.302C247.04 140.028 247.548 138.806 248.452 137.906C249.357 137.005 250.583 136.499 251.862 136.499C253.141 136.499 254.367 137.005 255.271 137.906C256.176 138.806 256.684 140.028 256.684 141.302" fill="black"/>
<path d="M249.451 140.101C249.673 140.101 249.853 139.832 249.853 139.501C249.853 139.169 249.673 138.9 249.451 138.9C249.229 138.9 249.049 139.169 249.049 139.501C249.049 139.832 249.229 140.101 249.451 140.101Z" fill="#6C63FF"/>
<path d="M251.862 139.301C252.084 139.301 252.264 139.032 252.264 138.7C252.264 138.369 252.084 138.1 251.862 138.1C251.64 138.1 251.46 138.369 251.46 138.7C251.46 139.032 251.64 139.301 251.862 139.301Z" fill="#6C63FF"/>
<path d="M251.862 144.504C252.084 144.504 252.264 144.236 252.264 143.904C252.264 143.572 252.084 143.304 251.862 143.304C251.64 143.304 251.46 143.572 251.46 143.904C251.46 144.236 251.64 144.504 251.862 144.504Z" fill="#6C63FF"/>
<path d="M254.273 141.302C254.495 141.302 254.674 141.033 254.674 140.702C254.674 140.37 254.495 140.101 254.273 140.101C254.051 140.101 253.871 140.37 253.871 140.702C253.871 141.033 254.051 141.302 254.273 141.302Z" fill="#6C63FF"/>
<path d="M253.871 145.705C254.093 145.705 254.273 145.436 254.273 145.105C254.273 144.773 254.093 144.504 253.871 144.504C253.649 144.504 253.469 144.773 253.469 145.105C253.469 145.436 253.649 145.705 253.871 145.705Z" fill="#6C63FF"/>
<path d="M249.049 143.704C249.271 143.704 249.451 143.435 249.451 143.103C249.451 142.772 249.271 142.503 249.049 142.503C248.827 142.503 248.647 142.772 248.647 143.103C248.647 143.435 248.827 143.704 249.049 143.704Z" fill="#6C63FF"/>
<path d="M266.327 150.909C269.877 150.909 272.756 148.042 272.756 144.504C272.756 140.967 269.877 138.1 266.327 138.1C262.776 138.1 259.898 140.967 259.898 144.504C259.898 148.042 262.776 150.909 266.327 150.909Z" fill="#6C63FF"/>
<path opacity="0.2" d="M271.148 144.905C271.148 145.536 271.024 146.16 270.781 146.743C270.539 147.326 270.184 147.855 269.736 148.301C269.288 148.747 268.757 149.101 268.172 149.343C267.587 149.584 266.96 149.708 266.327 149.708C265.694 149.708 265.067 149.584 264.482 149.343C263.897 149.101 263.365 148.747 262.917 148.301C262.47 147.855 262.114 147.326 261.872 146.743C261.63 146.16 261.505 145.536 261.505 144.905" fill="black"/>
<path opacity="0.2" d="M261.505 144.104C261.505 143.473 261.63 142.849 261.872 142.266C262.114 141.683 262.47 141.154 262.917 140.708C263.365 140.262 263.897 139.908 264.482 139.666C265.067 139.425 265.694 139.301 266.327 139.301C266.96 139.301 267.587 139.425 268.172 139.666C268.757 139.908 269.288 140.262 269.736 140.708C270.184 141.154 270.539 141.683 270.781 142.266C271.024 142.849 271.148 143.473 271.148 144.104" fill="black"/>
<path d="M263.916 142.903C264.138 142.903 264.318 142.634 264.318 142.303C264.318 141.971 264.138 141.702 263.916 141.702C263.694 141.702 263.514 141.971 263.514 142.303C263.514 142.634 263.694 142.903 263.916 142.903Z" fill="#6C63FF"/>
<path d="M266.327 142.103C266.549 142.103 266.728 141.834 266.728 141.502C266.728 141.171 266.549 140.902 266.327 140.902C266.105 140.902 265.925 141.171 265.925 141.502C265.925 141.834 266.105 142.103 266.327 142.103Z" fill="#6C63FF"/>
<path d="M266.327 147.306C266.549 147.306 266.728 147.038 266.728 146.706C266.728 146.374 266.549 146.106 266.327 146.106C266.105 146.106 265.925 146.374 265.925 146.706C265.925 147.038 266.105 147.306 266.327 147.306Z" fill="#6C63FF"/>
<path d="M268.738 144.104C268.959 144.104 269.139 143.835 269.139 143.504C269.139 143.172 268.959 142.903 268.738 142.903C268.516 142.903 268.336 143.172 268.336 143.504C268.336 143.835 268.516 144.104 268.738 144.104Z" fill="#6C63FF"/>
<path d="M268.336 148.507C268.558 148.507 268.737 148.238 268.737 147.907C268.737 147.575 268.558 147.306 268.336 147.306C268.114 147.306 267.934 147.575 267.934 147.907C267.934 148.238 268.114 148.507 268.336 148.507Z" fill="#6C63FF"/>
<path d="M263.514 146.506C263.736 146.506 263.916 146.237 263.916 145.905C263.916 145.574 263.736 145.305 263.514 145.305C263.292 145.305 263.112 145.574 263.112 145.905C263.112 146.237 263.292 146.506 263.514 146.506Z" fill="#6C63FF"/>
<path d="M276.372 157.714C279.922 157.714 282.801 154.847 282.801 151.309C282.801 147.772 279.922 144.905 276.372 144.905C272.821 144.905 269.943 147.772 269.943 151.309C269.943 154.847 272.821 157.714 276.372 157.714Z" fill="#FF6584"/>
<path opacity="0.2" d="M281.193 151.71C281.193 152.984 280.685 154.205 279.781 155.106C278.877 156.007 277.65 156.513 276.372 156.513C275.093 156.513 273.866 156.007 272.962 155.106C272.058 154.205 271.55 152.984 271.55 151.71" fill="black"/>
<path opacity="0.2" d="M271.55 150.909C271.55 149.635 272.058 148.413 272.962 147.512C273.866 146.612 275.093 146.106 276.372 146.106C277.65 146.106 278.877 146.612 279.781 147.512C280.685 148.413 281.193 149.635 281.193 150.909" fill="black"/>
<path d="M273.961 149.708C274.183 149.708 274.363 149.439 274.363 149.108C274.363 148.776 274.183 148.507 273.961 148.507C273.739 148.507 273.559 148.776 273.559 149.108C273.559 149.439 273.739 149.708 273.961 149.708Z" fill="#FF6584"/>
<path d="M276.372 148.908C276.594 148.908 276.774 148.639 276.774 148.307C276.774 147.976 276.594 147.707 276.372 147.707C276.15 147.707 275.97 147.976 275.97 148.307C275.97 148.639 276.15 148.908 276.372 148.908Z" fill="#FF6584"/>
<path d="M276.372 154.111C276.594 154.111 276.774 153.843 276.774 153.511C276.774 153.179 276.594 152.911 276.372 152.911C276.15 152.911 275.97 153.179 275.97 153.511C275.97 153.843 276.15 154.111 276.372 154.111Z" fill="#FF6584"/>
<path d="M278.783 150.909C279.005 150.909 279.184 150.64 279.184 150.309C279.184 149.977 279.005 149.708 278.783 149.708C278.561 149.708 278.381 149.977 278.381 150.309C278.381 150.64 278.561 150.909 278.783 150.909Z" fill="#FF6584"/>
<path d="M278.381 155.312C278.603 155.312 278.783 155.043 278.783 154.712C278.783 154.38 278.603 154.111 278.381 154.111C278.159 154.111 277.979 154.38 277.979 154.712C277.979 155.043 278.159 155.312 278.381 155.312Z" fill="#FF6584"/>
<path d="M273.559 153.311C273.781 153.311 273.961 153.042 273.961 152.71C273.961 152.379 273.781 152.11 273.559 152.11C273.337 152.11 273.157 152.379 273.157 152.71C273.157 153.042 273.337 153.311 273.559 153.311Z" fill="#FF6584"/>
<path d="M193.697 128.589C194.638 128.589 195.401 127.829 195.401 126.892C195.401 125.954 194.638 125.194 193.697 125.194C192.756 125.194 191.993 125.954 191.993 126.892C191.993 127.829 192.756 128.589 193.697 128.589Z" fill="#3F3D56"/>
<path d="M240.016 188.511L199.091 177.204L200.659 171.403L241.584 182.71L240.016 188.511Z" fill="#F9A825"/>
<path d="M234.017 186.572C220.002 189.245 205.606 189.245 191.591 186.572V180.558C205.637 182.878 219.971 182.878 234.017 180.558V186.572Z" fill="#F9A825"/>
<path d="M238.378 168.531C224.364 171.204 209.967 171.204 195.953 168.531V162.517C209.999 164.837 224.332 164.837 238.378 162.517V168.531Z" fill="#F9A825"/>
<path d="M253.049 175.748C239.034 178.42 224.638 178.42 210.623 175.748V169.734C224.669 172.053 239.003 172.053 253.049 169.734V175.748Z" fill="#F9A825"/>
<path d="M256.617 182.563C242.602 185.236 228.206 185.236 214.192 182.563V176.549C228.238 178.869 242.571 178.869 256.617 176.549V182.563Z" fill="#F9A825"/>
<path d="M269.058 191.469L227.202 198.473L226.231 192.54L268.087 185.536L269.058 191.469Z" fill="#F9A825"/>
<path d="M262.806 192.24C251.201 200.573 238.123 206.65 224.256 210.152L221.773 204.688C235.518 200.853 248.54 194.802 260.323 186.775L262.806 192.24Z" fill="#F9A825"/>
<path d="M259.319 174.005C247.714 182.339 234.636 188.416 220.769 191.917L218.286 186.453C232.031 182.619 245.053 176.568 256.835 168.541L259.319 174.005Z" fill="#F9A825"/>
<path d="M275.629 174.369C264.025 182.702 250.946 188.779 237.079 192.281L234.596 186.816C248.341 182.982 261.363 176.931 273.146 168.904L275.629 174.369Z" fill="#F9A825"/>
<path d="M281.686 179.055C270.082 187.388 257.003 193.465 243.136 196.967L240.653 191.503C254.398 187.668 267.42 181.618 279.203 173.591L281.686 179.055Z" fill="#F9A825"/>
<path d="M230.968 167.321H228.959V169.322H230.968V167.321Z" fill="#00BF71"/>
<path d="M236.995 202.146H234.986V204.148H236.995V202.146Z" fill="#00BF71"/>
<path d="M204.851 167.321H202.842V169.322H204.851V167.321Z" fill="#00BF71"/>
<path d="M251.46 192.139H249.451V194.14H251.46V192.139Z" fill="#00BF71"/>
<path d="M252.665 180.53H250.656V182.532H252.665V180.53Z" fill="#00BF71"/>
<path d="M219.524 175.05L217.197 173.477L216.295 174.802L218.622 176.375L219.524 175.05Z" fill="#00BF71"/>
<path d="M243.231 179.454L240.903 177.881L240.001 179.205L242.328 180.779L243.231 179.454Z" fill="#00BF71"/>
<path d="M214.301 187.059L211.973 185.486L211.071 186.811L213.399 188.384L214.301 187.059Z" fill="#00BF71"/>
<path d="M229.035 186.943L230.615 184.624L229.285 183.725L227.705 186.044L229.035 186.943Z" fill="#00BF71"/>
<path d="M239.884 189.745L241.463 187.426L240.133 186.527L238.554 188.846L239.884 189.745Z" fill="#00BF71"/>
<path d="M268.817 180.137L270.396 177.819L269.066 176.92L267.487 179.238L268.817 180.137Z" fill="#00BF71"/>
<path d="M459 248.846H0V250H459V248.846Z" fill="#3F3D56"/>
</svg>
