<svg width="527" height="357" viewBox="0 0 527 357" fill="none" xmlns="http://www.w3.org/2000/svg">
<path d="M264.41 340.508C405.469 340.508 519.82 307.871 519.82 267.612C519.82 227.352 405.469 194.715 264.41 194.715C123.351 194.715 9 227.352 9 267.612C9 307.871 123.351 340.508 264.41 340.508Z" fill="#F5F5F5"/>
<path d="M402.893 106.61C402.893 106.61 371.273 128.946 379.625 171.568C387.978 214.191 335.214 273.631 335.214 273.631C335.214 273.631 335.668 273.631 336.515 273.631C393.627 273.351 432.042 214.739 409.3 162.408C400.858 142.957 394.97 120.811 402.893 106.61Z" fill="#6C63FF"/>
<path d="M402.893 106.61C402.893 106.61 382.012 137.051 392.589 166.622C403.167 196.193 377.585 269.721 335.232 273.631" stroke="#535461" stroke-miterlimit="10"/>
<path d="M432.245 223.911C432.245 223.911 402.29 213.738 394.749 240.83C387.208 267.921 330.131 262.051 330.131 262.051C330.131 262.051 330.454 262.367 331.068 262.933C372.406 301.456 418.84 297.999 419.09 256.289C419.186 240.788 421.99 225.698 432.245 223.911Z" fill="#6C63FF"/>
<path opacity="0.2" d="M432.245 223.911C432.245 223.911 402.29 213.738 394.749 240.83C387.208 267.921 330.131 262.051 330.131 262.051C330.131 262.051 330.454 262.367 331.068 262.933C372.406 301.456 418.84 297.999 419.09 256.289C419.186 240.788 421.99 225.698 432.245 223.911Z" fill="#F5F5F5"/>
<path d="M432.245 223.91C432.245 223.91 407.439 225.061 405.673 247.105C403.907 269.149 361.99 288.75 330.131 262.051" stroke="#535461" stroke-miterlimit="10"/>
<path d="M379.655 162.063C381.445 153.123 381.033 140.102 366.393 133.761C374.22 121.192 370.539 112.307 363.463 109.154C363.416 105.877 362.557 99.2257 356.794 95.656C357.557 89.47 358.798 64.8811 330.985 62.1278C327.721 56.502 317.507 41.2695 300.868 37.0502V15C296.859 23.4089 271.635 28.2122 271.635 28.2122C242.724 32.2468 236.239 48.5639 234.777 55.6915C231.054 55.8047 227.779 56.2875 225.935 57.4436C219.874 61.2279 176.609 72.5211 179.997 102.462C179.401 102.664 178.84 102.867 178.261 103.058C178.261 103.058 154.594 121.919 160.96 136.92L158.573 137.092C158.573 137.092 144.852 145.567 149.07 162.265C148.51 162.873 148.108 163.609 147.9 164.408C147.692 165.207 147.684 166.045 147.876 166.848L180.504 275.484C180.717 276.242 181.18 276.905 181.817 277.367C183.291 278.392 186.351 280.436 190.814 282.916L190.849 283.088L191.046 283.047C196.128 285.848 201.371 288.345 206.749 290.526V290.651L206.946 290.615C210.728 292.147 214.875 293.649 219.355 295.031V295.127H219.552C223.698 296.396 228.125 297.564 232.808 298.553V298.613H233.005C237.402 299.537 242.032 300.299 246.864 300.848H247.049C252.991 301.513 258.968 301.816 264.947 301.754V301.754H265.347C270.945 301.675 276.534 301.277 282.087 300.562H282.284V300.526C286.775 299.946 291.366 299.133 296.06 298.088L296.012 298.553L296.412 298.595L296.471 297.999C301.153 296.934 305.925 295.605 310.79 294.012H310.987V293.917C315.028 292.578 319.122 291.04 323.271 289.304L323.467 289.34V289.209C328.276 287.179 333.148 284.852 338.084 282.23L338.281 282.272L338.317 282.105C341.101 280.615 343.907 279.026 346.735 277.337C347.484 276.886 348.037 276.172 348.286 275.335L380.807 166.616C380.997 165.814 380.987 164.979 380.779 164.182C380.571 163.385 380.171 162.651 379.613 162.045L379.655 162.063Z" fill="url(#paint0_linear)"/>
<path d="M329.66 67.6582C329.66 67.6582 314.984 37.5627 287.17 40.6497C259.357 43.7367 289.103 72.2887 289.103 72.2887C289.103 72.2887 323.098 74.9884 329.66 67.6582Z" fill="#6C63FF"/>
<path opacity="0.1" d="M329.66 67.6582C329.66 67.6582 314.984 37.5627 287.17 40.6497C259.357 43.7367 289.103 72.2887 289.103 72.2887C289.103 72.2887 323.098 74.9884 329.66 67.6582Z" fill="black"/>
<path d="M235.416 62.6403C235.416 62.6403 235.416 62.247 235.487 61.5557C235.982 56.7344 239.938 37.3183 271.337 32.95C271.337 32.95 295.672 28.3195 299.532 20.2146V44.9108C299.532 44.9108 294.509 62.2767 269.404 68.0634C244.299 73.8501 235.416 62.6403 235.416 62.6403Z" fill="#6C63FF"/>
<path d="M162.41 137.879C162.41 137.879 144.231 149.071 156.998 171.062C169.766 193.052 372.538 171.062 372.538 171.062C372.538 171.062 385.663 144.053 362.109 134.405C338.556 124.756 162.41 137.879 162.41 137.879Z" fill="#FFE9B3"/>
<path opacity="0.1" d="M360.051 111.717C360.003 108.558 359.174 102.182 353.619 98.7132C354.353 92.7537 355.558 69.0527 328.747 66.4007C325.597 60.9776 315.765 46.2695 299.723 42.2349V20.9655C295.863 29.0704 271.527 33.7009 271.527 33.7009C243.666 37.5925 237.414 53.3137 236.012 60.179C232.432 60.2863 229.27 60.775 227.492 61.8656C221.652 65.5128 179.955 76.3948 183.195 105.251C182.634 105.441 182.079 105.644 181.524 105.847C181.524 105.847 148.652 132.069 172.486 146.556C172.486 146.556 183.457 167.587 215.519 151.377L215.62 151.312C227.695 154.774 260.049 162.039 279.253 147.516L280.632 146.473C288.268 151.02 306.363 159.333 321.743 147.516L321.874 147.414C327.84 153.022 339.981 160.162 354.574 145.585C372.048 128.147 368.654 115.567 360.051 111.717Z" fill="black"/>
<path d="M317.686 142.122C317.686 142.122 333.526 165.656 354.383 144.822C375.24 123.987 366.357 110.096 354.383 109.708C342.409 109.321 317.686 142.122 317.686 142.122Z" fill="#6C63FF"/>
<path opacity="0.15" d="M317.686 142.122C317.686 142.122 333.526 165.656 354.383 144.822C375.24 123.987 366.357 110.096 354.383 109.708C342.409 109.321 317.686 142.122 317.686 142.122Z" fill="black"/>
<path d="M359.794 112.801C359.794 112.801 363.654 80.0242 313.856 105.084C264.058 130.144 276.772 143.284 276.772 143.284C276.772 143.284 301.495 162.194 321.576 146.759C341.658 131.324 353.995 126.693 359.794 112.801Z" fill="#6C63FF"/>
<path opacity="0.1" d="M359.794 112.801C359.794 112.801 363.654 80.0242 313.856 105.084C264.058 130.144 276.772 143.284 276.772 143.284C276.772 143.284 301.495 162.194 321.576 146.759C341.658 131.324 353.995 126.693 359.794 112.801Z" fill="black"/>
<path d="M321.552 102.766C321.552 102.766 302.622 89.6547 273.657 102.766C244.693 115.877 210.692 149.071 210.692 149.071C210.692 149.071 255.115 164.911 279.063 146.753C303.01 128.594 320.395 115.114 321.552 102.766Z" fill="#6C63FF"/>
<path opacity="0.07" d="M321.552 102.766C321.552 102.766 302.622 89.6547 273.657 102.766C244.693 115.877 210.692 149.071 210.692 149.071C210.692 149.071 255.115 164.911 279.063 146.753C303.01 128.594 320.395 115.114 321.552 102.766Z" fill="black"/>
<path d="M282.541 100.841C282.541 100.841 243.911 95.4414 226.144 106.24C208.378 117.039 172.271 145.793 172.271 145.793C172.271 145.793 183.243 166.824 215.304 150.615C215.328 150.609 281.765 109.327 282.541 100.841Z" fill="#6C63FF"/>
<path opacity="0.03" d="M282.541 100.841C282.541 100.841 243.911 95.4414 226.144 106.24C208.378 117.039 172.271 145.793 172.271 145.793C172.271 145.793 183.243 166.824 215.304 150.615C215.328 150.609 281.765 109.327 282.541 100.841Z" fill="black"/>
<path d="M181.334 105.084C181.334 105.084 146.958 132.498 173.996 146.759C173.996 146.759 231.162 109.333 232.325 105.084C232.325 105.084 205.681 95.8228 181.334 105.084Z" fill="#6C63FF"/>
<path d="M256.272 61.0968C256.272 61.0968 233.482 57.241 227.302 61.0968C221.121 64.9526 174.771 76.9193 184.036 109.714L197.925 104.72C197.925 104.72 224.599 71.1266 256.272 61.0968Z" fill="#6C63FF"/>
<path opacity="0.1" d="M256.272 61.0968C256.272 61.0968 233.482 57.241 227.302 61.0968C221.121 64.9526 174.771 76.9193 184.036 109.714L197.925 104.72C197.925 104.72 224.599 71.1266 256.272 61.0968Z" fill="black"/>
<path d="M294.127 66.1147C294.127 66.1147 277.905 51.0669 241.978 64.9585C206.051 78.8502 194.083 103.928 194.083 103.928L247.968 107.98C247.968 107.98 278.287 64.5712 294.127 66.1147Z" fill="#6C63FF"/>
<path opacity="0.07" d="M294.127 66.1147C294.127 66.1147 277.905 51.0669 241.978 64.9585C206.051 78.8502 194.083 103.928 194.083 103.928L247.968 107.98C247.968 107.98 278.287 64.5712 294.127 66.1147Z" fill="black"/>
<path d="M319.232 68.0396C319.232 68.0396 293.351 59.5533 273.293 71.1266C253.236 82.7 245.85 105.465 245.85 105.465L277.911 103.922C277.911 103.922 303.01 64.5712 319.232 68.0396Z" fill="#6C63FF"/>
<path opacity="0.03" d="M319.232 68.0396C319.232 68.0396 293.351 59.5533 273.293 71.1266C253.236 82.7 245.85 105.465 245.85 105.465L277.911 103.922C277.911 103.922 303.01 64.5712 319.232 68.0396Z" fill="black"/>
<path d="M353.226 99.2972C353.226 99.2972 362.109 54.1539 303.398 68.0455C303.398 68.0455 270.03 97.3723 279.379 105.471C288.728 113.57 353.226 99.2972 353.226 99.2972Z" fill="#6C63FF"/>
<path opacity="0.1" d="M152.071 165.787L183.511 270.478C183.73 271.202 184.186 271.832 184.806 272.266C193.582 278.398 261.105 321.909 343.794 272.266C344.514 271.83 345.046 271.142 345.285 270.335L376.625 165.567C376.795 164.995 376.811 164.389 376.671 163.809C376.531 163.23 376.24 162.697 375.827 162.266C375.415 161.835 374.895 161.521 374.322 161.355C373.748 161.19 373.141 161.179 372.562 161.324L358.947 164.721C358.479 164.838 357.991 164.855 357.515 164.768L344.718 162.385C343.965 162.245 343.187 162.365 342.511 162.724L327.322 170.817C326.589 171.205 325.74 171.311 324.935 171.115L308.594 167.057C307.976 166.902 307.327 166.925 306.721 167.122L287.743 173.326C287.319 173.465 286.871 173.519 286.425 173.484C285.98 173.449 285.546 173.327 285.148 173.124L272.578 166.699C271.783 166.291 270.858 166.214 270.006 166.485L253.797 171.652C253.388 171.781 252.959 171.831 252.532 171.801L236.925 170.71C236.691 170.694 236.459 170.654 236.233 170.591L223.847 167.057C223.325 166.909 222.775 166.888 222.243 166.997L205.084 170.478C204.441 170.609 203.774 170.551 203.163 170.311L186.459 163.702C185.873 163.47 185.235 163.406 184.615 163.517L171.317 165.901C170.78 165.997 170.227 165.962 169.706 165.799L156.306 161.592C155.721 161.412 155.098 161.394 154.503 161.541C153.909 161.687 153.365 161.992 152.93 162.422C152.496 162.853 152.186 163.393 152.035 163.986C151.883 164.579 151.896 165.201 152.071 165.787V165.787Z" fill="black"/>
<path d="M152.071 166.556L183.511 271.247C183.73 271.971 184.186 272.601 184.806 273.035C193.582 279.167 261.105 322.677 343.794 273.035C344.514 272.599 345.046 271.91 345.285 271.104L376.625 166.336C376.795 165.764 376.811 165.158 376.671 164.578C376.531 163.998 376.24 163.466 375.827 163.035C375.415 162.604 374.895 162.29 374.322 162.124C373.748 161.959 373.141 161.948 372.562 162.093L358.959 165.507C358.491 165.625 358.003 165.641 357.527 165.555L344.73 163.171C343.977 163.032 343.199 163.151 342.523 163.511L327.333 171.604C326.601 171.992 325.752 172.098 324.947 171.902L308.612 167.826C307.994 167.671 307.345 167.693 306.739 167.891L287.761 174.095C287.337 174.234 286.889 174.288 286.443 174.253C285.998 174.218 285.564 174.096 285.166 173.892L272.595 167.456C271.8 167.048 270.876 166.971 270.024 167.242L253.815 172.408C253.406 172.538 252.977 172.588 252.55 172.557L236.925 171.467C236.691 171.451 236.459 171.411 236.233 171.348L223.847 167.814C223.325 167.665 222.775 167.645 222.243 167.754L205.084 171.246C204.441 171.378 203.774 171.32 203.163 171.079L186.459 164.47C185.873 164.239 185.235 164.175 184.615 164.286L171.317 166.669C170.78 166.766 170.227 166.731 169.706 166.568L156.306 162.361C155.721 162.181 155.098 162.163 154.503 162.309C153.909 162.456 153.365 162.76 152.93 163.191C152.496 163.622 152.186 164.162 152.035 164.755C151.883 165.347 151.896 165.97 152.071 166.556V166.556Z" fill="#4D4981"/>
<path opacity="0.5" d="M186.56 129.232L183.273 128.088L181.429 125.138L189.626 114.887L192.914 116.032L194.757 118.981L186.56 129.232Z" fill="white"/>
<path opacity="0.5" d="M342.23 146.598L338.937 145.454L337.1 142.504L345.291 132.253L348.578 133.392L350.422 136.342L342.23 146.598Z" fill="white"/>
<path opacity="0.5" d="M273.86 90.644L270.573 89.5057L268.729 86.5558L276.921 76.2995L280.214 77.4437L282.052 80.3936L273.86 90.644Z" fill="white"/>
<path opacity="0.5" d="M292.313 128.344L289.133 129.75L285.768 128.856L284.736 115.775L287.916 114.369L291.281 115.263L292.313 128.344Z" fill="white"/>
<path opacity="0.5" d="M238.738 96.234L236.543 98.9337L233.136 99.6548L226.287 88.4628L228.489 85.7632L231.895 85.0421L238.738 96.234Z" fill="white"/>
<path opacity="0.5" d="M234.879 127.873L232.677 130.573L229.276 131.294L222.427 120.102L224.623 117.402L228.03 116.681L234.879 127.873Z" fill="white"/>
<path opacity="0.5" d="M329.35 130.954L326.826 133.35L323.354 133.63L317.997 121.651L320.526 119.256L323.992 118.975L329.35 130.954Z" fill="white"/>
<path opacity="0.5" d="M312.138 89.905L312.991 86.532L315.771 84.4461L326.713 91.7048L325.86 95.0779L323.08 97.1697L312.138 89.905Z" fill="white"/>
<path opacity="0.5" d="M195.831 94.8931L192.544 93.7489L190.7 90.799L198.897 80.5486L202.185 81.6869L204.028 84.6368L195.831 94.8931Z" fill="#FD6F8D"/>
<path opacity="0.5" d="M237.223 75.6201L236.418 72.241L237.921 69.1004L250.981 70.4889L251.786 73.8739L250.283 77.0146L237.223 75.6201Z" fill="#FD6F8D"/>
<path opacity="0.5" d="M300.51 56.3828L301.161 52.968L303.815 50.7153L315.163 57.3184L314.512 60.7332L311.858 62.9859L300.51 56.3828Z" fill="#FD6F8D"/>
<path opacity="0.5" d="M275.208 39.1539L278.603 38.3791L281.729 39.9107L280.208 52.9442L276.813 53.7129L273.687 52.1813L275.208 39.1539Z" fill="#FD6F8D"/>
<path opacity="0.5" d="M251.906 141.991L251.1 138.606L252.598 135.465L265.657 136.854L266.463 140.239L264.965 143.38L251.906 141.991Z" fill="#FD6F8D"/>
<path opacity="0.5" d="M203.617 144.464L201.558 141.657L201.713 138.189L214.284 134.381L216.348 137.188L216.187 140.662L203.617 144.464Z" fill="#FD6F8D"/>
<path opacity="0.5" d="M338.8 121.222L335.942 119.238L334.97 115.894L345.631 108.236L348.489 110.221L349.461 113.558L338.8 121.222Z" fill="#FD6F8D"/>
<path opacity="0.5" d="M248.415 123.922L245.558 121.937L244.579 118.6L255.24 110.936L258.098 112.921L259.076 116.258L248.415 123.922Z" fill="#FD6F8D"/>
<path opacity="0.1" d="M184.639 163.517L171.341 165.901C170.803 165.997 170.251 165.962 169.73 165.799L169.509 165.728L193.713 277.767L169.509 165.728L156.33 161.592C155.746 161.41 155.124 161.39 154.53 161.533C153.935 161.677 153.391 161.979 152.954 162.407C152.518 162.835 152.206 163.373 152.051 163.964C151.897 164.555 151.905 165.177 152.077 165.764L183.517 270.454C183.736 271.179 184.192 271.808 184.812 272.242C187.562 274.167 196.094 279.763 209.052 285.007L185.611 163.433C185.285 163.414 184.957 163.442 184.639 163.517V163.517Z" fill="black"/>
<path opacity="0.1" d="M372.574 161.336L358.959 164.733C358.491 164.85 358.003 164.867 357.527 164.78L344.73 162.396C344.336 162.326 343.932 162.326 343.537 162.396L321.165 283.792L343.525 162.402C343.175 162.464 342.837 162.581 342.523 162.748L327.334 170.841C326.641 171.209 325.841 171.325 325.072 171.169L309.131 288.309C318.22 285.295 327.032 281.507 335.471 276.986L359.866 164.5L335.465 276.95C338.225 275.48 341.01 273.907 343.818 272.23C344.538 271.794 345.07 271.106 345.309 270.299L376.648 165.531C376.809 164.961 376.817 164.36 376.672 163.786C376.527 163.212 376.233 162.686 375.821 162.261C375.408 161.836 374.891 161.527 374.321 161.365C373.751 161.202 373.149 161.192 372.574 161.336V161.336Z" fill="black"/>
<path d="M324.923 171.133L308.594 167.057C308.28 166.979 307.957 166.947 307.634 166.961L295.171 292.195C299.745 291.158 304.406 289.862 309.155 288.309L325.096 171.169L324.923 171.133Z" fill="#4D4981"/>
<g opacity="0.5">
<path opacity="0.5" d="M169.7 166.448L169.321 166.53L193.525 278.546L193.904 278.464L169.7 166.448Z" fill="white"/>
<path opacity="0.5" d="M204.335 171.399L203.951 171.454L221.05 290.13L221.434 290.075L204.335 171.399Z" fill="white"/>
<path opacity="0.5" d="M185.755 164.102L185.374 164.175L208.835 285.873L209.215 285.8L185.755 164.102Z" fill="white"/>
<path opacity="0.5" d="M223.246 167.574L222.86 167.608L233.996 293.488L234.382 293.454L223.246 167.574Z" fill="white"/>
<path opacity="0.5" d="M244.277 171.989L243.889 172L247.52 295.672L247.908 295.661L244.277 171.989Z" fill="white"/>
<path opacity="0.5" d="M264.501 169.069L264.113 169.071L264.937 296.548L265.325 296.546L264.501 169.069Z" fill="white"/>
<path opacity="0.5" d="M286.24 174.537L281.275 295.384L281.662 295.4L286.627 174.553L286.24 174.537Z" fill="white"/>
<path opacity="0.5" d="M307.477 167.562L294.854 293.44L295.24 293.479L307.863 167.6L307.477 167.562Z" fill="white"/>
<path opacity="0.5" d="M322.453 169.333L306.926 287.449L307.309 287.499L322.837 169.383L322.453 169.333Z" fill="white"/>
<path opacity="0.5" d="M343.377 162.888L320.926 284.485L321.307 284.555L343.758 162.958L343.377 162.888Z" fill="white"/>
<path opacity="0.5" d="M359.648 165.223L335.319 277.724L335.698 277.805L360.027 165.304L359.648 165.223Z" fill="white"/>
</g>
<path d="M402.809 154.667C403.046 154.667 403.274 154.573 403.442 154.405C403.61 154.238 403.704 154.01 403.704 153.773C403.704 153.536 403.61 153.309 403.442 153.141C403.274 152.973 403.046 152.879 402.809 152.879C402.572 152.879 402.344 152.973 402.176 153.141C402.008 153.309 401.914 153.536 401.914 153.773C401.914 154.01 402.008 154.238 402.176 154.405C402.344 154.573 402.572 154.667 402.809 154.667V154.667Z" fill="black"/>
<defs>
<linearGradient id="paint0_linear" x1="264.35" y1="301.742" x2="264.35" y2="14.9881" gradientUnits="userSpaceOnUse">
<stop stop-color="#808080" stop-opacity="0.25"/>
<stop offset="0.54" stop-color="#808080" stop-opacity="0.12"/>
<stop offset="1" stop-color="#808080" stop-opacity="0.1"/>
</linearGradient>
</defs>
</svg>
