<svg width="93" height="27" viewBox="0 0 93 27" fill="none" xmlns="http://www.w3.org/2000/svg">
<path d="M0.72 1.55C1.86 1.39 2.95 1.28 3.99 1.22C5.03 1.14 5.92 1.1 6.66 1.1C8.42 1.1 10.04 1.34 11.52 1.82C13 2.3 14.3 3.16 15.42 4.4C16.44 5.56 17.2 6.97 17.7 8.63C18.2 10.27 18.45 12.04 18.45 13.94C18.45 15.8 18.21 17.49 17.73 19.01C17.25 20.53 16.51 21.83 15.51 22.91C14.53 23.99 13.29 24.83 11.79 25.43C10.29 26.03 8.52 26.33 6.48 26.33C6.02 26.33 5.27 26.31 4.23 26.27C3.21 26.23 2.08 26.14 0.84 26C0.86 25.08 0.87 24.19 0.87 23.33C0.89 22.45 0.9 21.59 0.9 20.75C0.92 19.89 0.93 19.03 0.93 18.17C0.93 17.31 0.93 16.42 0.93 15.5C0.93 12.88 0.91 10.37 0.87 7.97C0.85 5.57 0.8 3.43 0.72 1.55ZM6.54 6.08C6.34 6.08 6.15 6.09 5.97 6.11C5.81 6.13 5.65 6.15 5.49 6.17C5.47 7.11 5.46 8.05 5.46 8.99C5.46 9.91 5.46 10.84 5.46 11.78C5.46 12.24 5.46 12.73 5.46 13.25C5.48 13.77 5.49 14.31 5.49 14.87C5.51 15.41 5.53 15.96 5.55 16.52C5.57 17.06 5.58 17.57 5.58 18.05C5.76 18.09 5.94 18.12 6.12 18.14C6.3 18.14 6.46 18.14 6.6 18.14C7.34 18.14 8.02 17.98 8.64 17.66C9.28 17.34 9.83 16.91 10.29 16.37C10.77 15.81 11.14 15.16 11.4 14.42C11.66 13.68 11.79 12.89 11.79 12.05C11.79 11.43 11.7 10.77 11.52 10.07C11.36 9.35 11.07 8.7 10.65 8.12C10.25 7.54 9.71 7.06 9.03 6.68C8.37 6.28 7.54 6.08 6.54 6.08ZM25.65 16.55C25.91 17.41 26.34 18.11 26.94 18.65C27.54 19.19 28.37 19.46 29.43 19.46C29.75 19.46 30.09 19.44 30.45 19.4C30.83 19.34 31.2 19.27 31.56 19.19C31.92 19.09 32.26 18.99 32.58 18.89C32.9 18.77 33.18 18.66 33.42 18.56C33.46 19.14 33.48 19.76 33.48 20.42C33.5 21.06 33.51 21.7 33.51 22.34C33.51 23.4 33.48 24.35 33.42 25.19C31.86 25.95 30.11 26.33 28.17 26.33C27.27 26.33 26.36 26.23 25.44 26.03C24.52 25.83 23.63 25.45 22.77 24.89C22.01 24.39 21.38 23.81 20.88 23.15C20.4 22.47 20.02 21.78 19.74 21.08C19.46 20.36 19.27 19.66 19.17 18.98C19.07 18.3 19.02 17.69 19.02 17.15C19.02 16.35 19.11 15.52 19.29 14.66C19.49 13.78 19.79 12.95 20.19 12.17C20.59 11.37 21.1 10.64 21.72 9.98C22.34 9.32 23.07 8.8 23.91 8.42C24.93 7.96 26.01 7.73 27.15 7.73C28.35 7.73 29.43 7.97 30.39 8.45C31.35 8.93 32.13 9.59 32.73 10.43C33.31 11.23 33.67 12.12 33.81 13.1C33.97 14.08 34.05 15.23 34.05 16.55H25.65ZM27.36 10.97C26.94 10.97 26.54 11.15 26.16 11.51C25.78 11.85 25.53 12.46 25.41 13.34H29.34C29.26 12.54 29.02 11.95 28.62 11.57C28.24 11.17 27.82 10.97 27.36 10.97ZM36.8838 9.17C37.5638 8.63 38.2938 8.26 39.0738 8.06C39.8538 7.84 40.6438 7.73 41.4438 7.73C42.0238 7.73 42.5938 7.78 43.1538 7.88C43.7338 7.98 44.2838 8.11 44.8038 8.27C44.8438 9.49 44.8638 10.49 44.8638 11.27C44.8838 12.03 44.8938 12.62 44.8938 13.04C44.8938 13.64 44.8838 14.07 44.8638 14.33C44.8438 14.57 44.8238 14.8 44.8038 15.02C44.7638 15.02 44.6638 15 44.5038 14.96C44.3438 14.92 44.1538 14.88 43.9338 14.84C43.7138 14.8 43.4738 14.77 43.2138 14.75C42.9738 14.71 42.7338 14.69 42.4938 14.69C42.1338 14.69 41.8238 14.74 41.5638 14.84C41.3238 14.92 41.2038 15.09 41.2038 15.35C41.2038 15.57 41.2838 15.78 41.4438 15.98C41.6038 16.16 41.7938 16.35 42.0138 16.55C42.2538 16.73 42.5038 16.91 42.7638 17.09C43.0438 17.25 43.3038 17.4 43.5438 17.54C44.0838 17.9 44.5838 18.39 45.0438 19.01C45.5238 19.61 45.7638 20.41 45.7638 21.41C45.7638 22.29 45.5638 23.04 45.1638 23.66C44.7838 24.28 44.2938 24.79 43.6938 25.19C43.0938 25.59 42.4138 25.88 41.6538 26.06C40.9138 26.24 40.1838 26.33 39.4638 26.33C39.1838 26.33 38.8638 26.32 38.5038 26.3C38.1438 26.28 37.7738 26.24 37.3938 26.18C37.0338 26.12 36.6738 26.05 36.3138 25.97C35.9538 25.87 35.6238 25.75 35.3238 25.61C35.2238 25.27 35.1538 24.91 35.1138 24.53C35.0738 24.13 35.0538 23.74 35.0538 23.36C35.0538 23.18 35.0538 22.96 35.0538 22.7C35.0738 22.44 35.0938 22.18 35.1138 21.92C35.1338 21.64 35.1638 21.37 35.2038 21.11C35.2438 20.85 35.2838 20.63 35.3238 20.45C35.5438 20.55 35.7938 20.66 36.0738 20.78C36.3738 20.88 36.6838 20.98 37.0038 21.08C37.3238 21.18 37.6338 21.27 37.9338 21.35C38.2538 21.41 38.5538 21.44 38.8338 21.44C39.2338 21.44 39.5438 21.36 39.7638 21.2C39.9838 21.04 40.0938 20.82 40.0938 20.54C40.0938 20.3 40.0238 20.09 39.8838 19.91C39.7438 19.71 39.5738 19.53 39.3738 19.37C39.1738 19.19 38.9538 19.04 38.7138 18.92C38.4738 18.78 38.2538 18.66 38.0538 18.56C37.6738 18.36 37.2838 18.14 36.8838 17.9C36.4838 17.66 36.1238 17.37 35.8038 17.03C35.4838 16.67 35.2238 16.24 35.0238 15.74C34.8238 15.24 34.7238 14.63 34.7238 13.91C34.7238 13.07 34.8838 12.23 35.2038 11.39C35.5438 10.55 36.1038 9.81 36.8838 9.17ZM46.6882 8.54H51.0982V26H46.6882V8.54ZM48.9982 1.1C49.4782 1.1 49.9082 1.2 50.2882 1.4C50.6882 1.58 51.0182 1.82 51.2782 2.12C51.5382 2.42 51.7382 2.76 51.8782 3.14C52.0182 3.5 52.0882 3.85 52.0882 4.19C52.0882 4.65 51.9982 5.08 51.8182 5.48C51.6582 5.86 51.4282 6.2 51.1282 6.5C50.8482 6.78 50.5182 7.01 50.1382 7.19C49.7782 7.35 49.3882 7.43 48.9682 7.43C48.4482 7.43 47.9882 7.35 47.5882 7.19C47.1882 7.01 46.8482 6.79 46.5682 6.53C46.3082 6.25 46.1082 5.93 45.9682 5.57C45.8482 5.21 45.7882 4.84 45.7882 4.46C45.7882 4.08 45.8582 3.69 45.9982 3.29C46.1582 2.89 46.3682 2.53 46.6282 2.21C46.9082 1.87 47.2482 1.6 47.6482 1.4C48.0482 1.2 48.4982 1.1 48.9982 1.1ZM67.1548 26H63.0448V24.53C62.3248 25.11 61.5648 25.56 60.7648 25.88C59.9648 26.18 59.1848 26.33 58.4248 26.33C57.5248 26.33 56.6948 26.11 55.9348 25.67C55.1748 25.23 54.5148 24.62 53.9548 23.84C53.4148 23.04 52.9848 22.09 52.6648 20.99C52.3448 19.89 52.1848 18.69 52.1848 17.39C52.1848 16.03 52.3548 14.76 52.6948 13.58C53.0348 12.4 53.4948 11.38 54.0748 10.52C54.6748 9.64 55.3748 8.96 56.1748 8.48C56.9948 7.98 57.8748 7.73 58.8148 7.73C59.6348 7.73 60.4148 7.91 61.1548 8.27C61.8948 8.61 62.5248 9.04 63.0448 9.56V0.769999H67.3048L67.1548 26ZM57.9148 15.17C57.9148 15.99 58.1348 16.65 58.5748 17.15C59.0348 17.65 59.6148 17.9 60.3148 17.9C61.0748 17.9 61.7148 17.63 62.2348 17.09C62.7748 16.55 63.0448 15.86 63.0448 15.02C63.0448 14.64 62.9748 14.28 62.8348 13.94C62.7148 13.6 62.5348 13.31 62.2948 13.07C62.0548 12.81 61.7748 12.61 61.4548 12.47C61.1348 12.33 60.7948 12.26 60.4348 12.26C59.7148 12.26 59.1148 12.53 58.6348 13.07C58.1548 13.61 57.9148 14.31 57.9148 15.17ZM74.898 16.55C75.158 17.41 75.588 18.11 76.188 18.65C76.788 19.19 77.618 19.46 78.678 19.46C78.998 19.46 79.338 19.44 79.698 19.4C80.078 19.34 80.448 19.27 80.808 19.19C81.168 19.09 81.508 18.99 81.828 18.89C82.148 18.77 82.428 18.66 82.668 18.56C82.708 19.14 82.728 19.76 82.728 20.42C82.748 21.06 82.758 21.7 82.758 22.34C82.758 23.4 82.728 24.35 82.668 25.19C81.108 25.95 79.358 26.33 77.418 26.33C76.518 26.33 75.608 26.23 74.688 26.03C73.768 25.83 72.878 25.45 72.018 24.89C71.258 24.39 70.628 23.81 70.128 23.15C69.648 22.47 69.268 21.78 68.988 21.08C68.708 20.36 68.518 19.66 68.418 18.98C68.318 18.3 68.268 17.69 68.268 17.15C68.268 16.35 68.358 15.52 68.538 14.66C68.738 13.78 69.038 12.95 69.438 12.17C69.838 11.37 70.348 10.64 70.968 9.98C71.588 9.32 72.318 8.8 73.158 8.42C74.178 7.96 75.258 7.73 76.398 7.73C77.598 7.73 78.678 7.97 79.638 8.45C80.598 8.93 81.378 9.59 81.978 10.43C82.558 11.23 82.918 12.12 83.058 13.1C83.218 14.08 83.298 15.23 83.298 16.55H74.898ZM76.608 10.97C76.188 10.97 75.788 11.15 75.408 11.51C75.028 11.85 74.778 12.46 74.658 13.34H78.588C78.508 12.54 78.268 11.95 77.868 11.57C77.488 11.17 77.068 10.97 76.608 10.97ZM88.2319 8.06L88.4419 10.34C88.6819 9.96 88.9719 9.61 89.3119 9.29C89.6519 8.97 90.0019 8.7 90.3619 8.48C90.7419 8.24 91.1119 8.06 91.4719 7.94C91.8519 7.8 92.2019 7.73 92.5219 7.73C92.5619 8.25 92.5919 8.85 92.6119 9.53C92.6519 10.19 92.6719 10.87 92.6719 11.57C92.6719 12.37 92.6519 13.16 92.6119 13.94C92.5919 14.72 92.5619 15.44 92.5219 16.1C92.3419 16.02 92.0919 15.96 91.7719 15.92C91.4519 15.88 91.1819 15.86 90.9619 15.86C90.2219 15.86 89.6719 16.04 89.3119 16.4C88.9719 16.74 88.8019 17.17 88.8019 17.69V26H84.3919C84.4119 22.76 84.4219 19.69 84.4219 16.79C84.4419 13.87 84.4519 10.96 84.4519 8.06H88.2319Z" fill="#3D2B3D"/>
</svg>
