<svg width="442" height="321" viewBox="0 0 442 321" fill="none" xmlns="http://www.w3.org/2000/svg">
<g clip-path="url(#clip0)">
<path opacity="0.1" d="M31.2363 259.173C43.3909 259.173 53.2441 255.674 53.2441 251.357C53.2441 247.041 43.3909 243.542 31.2363 243.542C19.0817 243.542 9.22852 247.041 9.22852 251.357C9.22852 255.674 19.0817 259.173 31.2363 259.173Z" fill="black"/>
<path opacity="0.1" d="M386.775 291.486C398.929 291.486 408.783 287.987 408.783 283.67C408.783 279.354 398.929 275.855 386.775 275.855C374.62 275.855 364.767 279.354 364.767 283.67C364.767 287.987 374.62 291.486 386.775 291.486Z" fill="black"/>
<path opacity="0.1" d="M260.617 9.0027C227.126 21.923 190.822 22.5238 157.102 10.3607C109.31 -6.87291 46.8963 -11.2839 23.7685 67.6887C-15.7037 202.612 65.0503 250.771 65.0503 250.771C65.0503 250.771 121.429 263.394 152.646 286.201C196.99 318.597 251.295 329.426 302.451 314.235C335.164 304.519 363.202 288.58 371.218 262.5C393.637 189.56 379.405 145.719 419.978 126.487C460.55 107.256 437.975 36.0108 409.12 34.3939C380.266 32.777 312.286 49.3023 291.256 16.4325C283.759 4.76269 272.29 4.49402 260.617 9.0027Z" fill="black"/>
<path d="M385.885 284.779C385.885 284.779 391.754 264.83 384.78 250.146C381.81 244.006 380.914 237.069 382.227 230.377C382.875 227.204 383.813 224.098 385.029 221.096" stroke="#535461" stroke-width="2" stroke-miterlimit="10"/>
<path d="M380.686 211.82C380.686 214.262 385.117 221.355 385.117 221.355C385.117 221.355 389.548 214.267 389.548 211.82C389.548 210.645 389.081 209.519 388.249 208.689C387.418 207.858 386.29 207.392 385.115 207.392C383.939 207.392 382.811 207.858 381.98 208.689C381.148 209.519 380.681 210.645 380.681 211.82H380.686Z" fill="#6C63FF"/>
<path d="M373.36 225.365C374.69 227.417 382.271 230.963 382.271 230.963C382.271 230.963 382.134 222.605 380.804 220.554C380.487 220.066 380.078 219.645 379.599 219.315C379.12 218.985 378.58 218.753 378.011 218.632C377.442 218.51 376.855 218.502 376.282 218.607C375.71 218.712 375.164 218.929 374.676 219.245C374.187 219.561 373.766 219.97 373.436 220.448C373.105 220.927 372.873 221.466 372.751 222.034C372.629 222.602 372.621 223.189 372.726 223.761C372.832 224.332 373.049 224.877 373.365 225.365H373.36Z" fill="#6C63FF"/>
<path d="M373.678 248.505C375.864 249.604 384.198 248.847 384.198 248.847C384.198 248.847 379.855 241.7 377.669 240.601C376.619 240.072 375.403 239.982 374.287 240.349C373.17 240.717 372.246 241.512 371.717 242.56C371.188 243.608 371.097 244.823 371.465 245.938C371.833 247.053 372.629 247.976 373.678 248.505V248.505Z" fill="#6C63FF"/>
<path d="M377.869 265.963C379.825 267.428 388.179 268.073 388.179 268.073C388.179 268.073 385.107 260.297 383.141 258.846C382.196 258.147 381.012 257.853 379.85 258.026C378.687 258.2 377.642 258.828 376.942 259.771C376.243 260.715 375.948 261.898 376.122 263.059C376.296 264.22 376.924 265.265 377.869 265.963V265.963Z" fill="#6C63FF"/>
<path d="M391.573 231.437C389.817 233.142 381.635 234.905 381.635 234.905C381.635 234.905 383.64 226.792 385.396 225.087C386.239 224.269 387.373 223.819 388.548 223.836C389.724 223.853 390.844 224.335 391.663 225.177C392.482 226.019 392.933 227.152 392.916 228.326C392.899 229.5 392.416 230.619 391.573 231.437V231.437Z" fill="#6C63FF"/>
<path d="M396.214 251.909C394.028 253.008 385.694 252.251 385.694 252.251C385.694 252.251 390.037 245.105 392.223 244.03C393.272 243.502 394.489 243.411 395.605 243.778C396.721 244.146 397.646 244.941 398.175 245.989C398.704 247.037 398.795 248.252 398.427 249.367C398.059 250.482 397.263 251.405 396.214 251.934V251.909Z" fill="#6C63FF"/>
<path d="M397.989 272.43C396.033 273.896 387.68 274.541 387.68 274.541C387.68 274.541 390.751 266.764 392.717 265.313C393.662 264.615 394.846 264.32 396.009 264.494C397.171 264.667 398.217 265.295 398.916 266.239C399.615 267.183 399.91 268.365 399.737 269.526C399.563 270.687 398.934 271.732 397.989 272.43V272.43Z" fill="#6C63FF"/>
<path d="M31.2461 251.416C31.2461 251.416 43.8101 208.86 28.8986 177.499C22.6386 164.344 20.5846 149.582 23.4554 135.309C24.8393 128.539 26.8414 121.911 29.4366 115.506" stroke="#535461" stroke-width="2" stroke-miterlimit="10"/>
<path d="M20.1592 95.6982C20.1592 100.915 29.6177 116.048 29.6177 116.048C29.6177 116.048 39.0712 100.905 39.0712 95.6982C39.0712 93.1926 38.0747 90.7897 36.3009 89.018C34.5271 87.2463 32.1213 86.251 29.6128 86.251C27.1042 86.251 24.6984 87.2463 22.9246 89.018C21.1508 90.7897 20.1543 93.1926 20.1543 95.6982H20.1592Z" fill="#6C63FF"/>
<path d="M4.5237 124.602C7.36516 128.998 23.5385 136.55 23.5385 136.55C23.5385 136.55 23.245 118.71 20.4036 114.334C19.0135 112.295 16.8802 110.88 14.4595 110.391C12.0387 109.902 9.52263 110.379 7.44885 111.718C5.37508 113.058 3.90814 115.154 3.36155 117.56C2.81495 119.966 3.23205 122.489 4.5237 124.592V124.602Z" fill="#6C63FF"/>
<path d="M5.20367 173.997C9.86932 176.346 27.6565 174.725 27.6565 174.725C27.6565 174.725 18.3643 159.474 13.7231 157.139C12.614 156.581 11.4055 156.245 10.1667 156.153C8.92789 156.061 7.68303 156.213 6.50319 156.602C5.32334 156.99 4.23161 157.606 3.29034 158.416C2.34907 159.226 1.57669 160.213 1.01729 161.321C0.457898 162.428 0.122445 163.636 0.0300874 164.873C-0.0622706 166.11 0.0902757 167.354 0.479017 168.532C1.26411 170.912 2.96362 172.883 5.20367 174.011V173.997Z" fill="#6C63FF"/>
<path d="M14.1289 211.253C18.33 214.355 36.1368 215.757 36.1368 215.757C36.1368 215.757 29.5833 199.149 25.3774 196.061C23.3604 194.572 20.8335 193.943 18.3526 194.314C15.8716 194.685 13.6399 196.025 12.1482 198.04C10.6566 200.054 10.0273 202.578 10.3987 205.056C10.7702 207.534 12.112 209.763 14.1289 211.253V211.253Z" fill="#6C63FF"/>
<path d="M43.3994 137.541C39.6531 141.176 22.1936 144.942 22.1936 144.942C22.1936 144.942 26.468 127.62 30.2142 123.986C32.0139 122.237 34.4355 121.274 36.9463 121.308C39.457 121.343 41.8513 122.372 43.6023 124.169C45.3534 125.967 46.3178 128.386 46.2834 130.893C46.249 133.401 45.2186 135.792 43.4189 137.541H43.3994Z" fill="#6C63FF"/>
<path d="M53.303 181.265C48.6373 183.615 30.8501 181.993 30.8501 181.993C30.8501 181.993 40.1423 166.743 44.7835 164.408C45.8926 163.849 47.1011 163.514 48.3399 163.422C49.5787 163.33 50.8236 163.482 52.0034 163.87C53.1833 164.258 54.275 164.875 55.2163 165.685C56.1576 166.494 56.9299 167.481 57.4893 168.589C58.0487 169.697 58.3842 170.904 58.4765 172.141C58.5689 173.379 58.4163 174.622 58.0276 175.801C57.6389 176.979 57.0215 178.069 56.2109 179.01C55.4002 179.95 54.4121 180.721 53.303 181.28V181.265Z" fill="#6C63FF"/>
<path d="M57.0933 225.062C52.8922 228.164 35.0854 229.566 35.0854 229.566C35.0854 229.566 41.6389 212.958 45.8448 209.871C47.8618 208.381 50.3887 207.752 52.8696 208.123C55.3505 208.494 57.5823 209.835 59.074 211.849C60.5656 213.864 61.1949 216.387 60.8235 218.865C60.452 221.343 59.1102 223.573 57.0933 225.062V225.062Z" fill="#6C63FF"/>
<path d="M185.428 146.442L158.173 142.915C157.067 142.773 156.216 142.353 156.246 141.987C156.295 141.62 157.224 141.449 158.353 141.61L185.55 145.543C186.299 145.65 186.866 145.934 186.832 146.183C186.797 146.417 186.171 146.539 185.428 146.442Z" fill="#6C63FF"/>
<path d="M185.599 146.906L158.261 144.082C157.15 143.97 156.207 144.175 156.172 144.541C156.138 144.908 157.023 145.294 158.129 145.391L185.516 147.834C186.269 147.902 186.885 147.756 186.91 147.506C186.929 147.243 186.348 146.984 185.599 146.906Z" fill="#6C63FF"/>
<path d="M226.612 167.446L253.863 163.919C254.968 163.778 255.819 163.358 255.79 162.991C255.741 162.625 254.811 162.454 253.682 162.615L226.485 166.547C225.737 166.655 225.169 166.938 225.204 167.187C225.238 167.422 225.864 167.544 226.612 167.446Z" fill="#6C63FF"/>
<path d="M226.436 167.91L253.775 165.087C254.885 164.974 255.829 165.18 255.863 165.546C255.897 165.912 255.012 166.298 253.907 166.396L226.519 168.838C225.766 168.907 225.15 168.76 225.125 168.511C225.106 168.247 225.688 167.988 226.436 167.91Z" fill="#6C63FF"/>
<path d="M136.463 196.682H129.817V291.867H136.463V196.682Z" fill="#40414D"/>
<path d="M281.627 196.682H274.98V291.867H281.627V196.682Z" fill="#40414D"/>
<path d="M127.278 188.934H280.844C283.698 188.934 286.434 190.067 288.452 192.082C290.47 194.097 291.603 196.831 291.603 199.681V201.107H116.519V199.681C116.519 196.831 117.653 194.097 119.67 192.082C121.688 190.067 124.425 188.934 127.278 188.934V188.934Z" fill="#DFE6F5"/>
<path opacity="0.1" d="M126.789 188.934H280.355C283.209 188.934 285.945 190.067 287.963 192.082C289.981 194.097 291.114 196.831 291.114 199.681V201.107H116.03V199.681C116.03 196.831 117.164 194.097 119.181 192.082C121.199 190.067 123.936 188.934 126.789 188.934V188.934Z" fill="black"/>
<path d="M127.278 186.717H280.844C283.698 186.717 286.434 187.849 288.452 189.864C290.47 191.88 291.603 194.613 291.603 197.463V198.89H116.519V197.463C116.519 194.613 117.653 191.88 119.67 189.864C121.688 187.849 124.425 186.717 127.278 186.717Z" fill="#DFE6F5"/>
<path d="M204.061 178.969C211.405 178.969 217.359 173.023 217.359 165.688C217.359 158.352 211.405 152.406 204.061 152.406C196.717 152.406 190.764 158.352 190.764 165.688C190.764 173.023 196.717 178.969 204.061 178.969Z" fill="#FFD77C" stroke="#FFAB50" stroke-miterlimit="10"/>
<path d="M204.061 176.214C209.882 176.214 214.601 171.501 214.601 165.688C214.601 159.874 209.882 155.161 204.061 155.161C198.241 155.161 193.522 159.874 193.522 165.688C193.522 171.501 198.241 176.214 204.061 176.214Z" fill="#FFD77C" stroke="#FFAB50" stroke-miterlimit="10"/>
<path d="M204.061 173.708C208.496 173.708 212.092 170.117 212.092 165.688C212.092 161.258 208.496 157.667 204.061 157.667C199.626 157.667 196.031 161.258 196.031 165.688C196.031 170.117 199.626 173.708 204.061 173.708Z" fill="#FFD77C" stroke="#FFAB50" stroke-miterlimit="10"/>
<path d="M204.061 170.196C206.554 170.196 208.575 168.178 208.575 165.688C208.575 163.198 206.554 161.179 204.061 161.179C201.568 161.179 199.547 163.198 199.547 165.688C199.547 168.178 201.568 170.196 204.061 170.196Z" fill="#FFD77C" stroke="#FFAB50" stroke-miterlimit="10"/>
<path d="M196.305 186.165C203.649 186.165 209.603 180.218 209.603 172.883C209.603 165.548 203.649 159.601 196.305 159.601C188.961 159.601 183.007 165.548 183.007 172.883C183.007 180.218 188.961 186.165 196.305 186.165Z" fill="#FFD77C" stroke="#FFAB50" stroke-miterlimit="10"/>
<path d="M196.305 183.41C202.125 183.41 206.844 178.697 206.844 172.883C206.844 167.069 202.125 162.356 196.305 162.356C190.484 162.356 185.765 167.069 185.765 172.883C185.765 178.697 190.484 183.41 196.305 183.41Z" fill="#FFD77C" stroke="#FFAB50" stroke-miterlimit="10"/>
<path d="M196.305 180.904C200.74 180.904 204.335 177.313 204.335 172.883C204.335 168.453 200.74 164.862 196.305 164.862C191.87 164.862 188.274 168.453 188.274 172.883C188.274 177.313 191.87 180.904 196.305 180.904Z" fill="#FFD77C" stroke="#FFAB50" stroke-miterlimit="10"/>
<path d="M196.305 177.392C198.798 177.392 200.819 175.373 200.819 172.883C200.819 170.393 198.798 168.374 196.305 168.374C193.812 168.374 191.791 170.393 191.791 172.883C191.791 175.373 193.812 177.392 196.305 177.392Z" fill="#FFD77C" stroke="#FFAB50" stroke-miterlimit="10"/>
<path d="M211.818 186.165C219.162 186.165 225.115 180.218 225.115 172.883C225.115 165.548 219.162 159.601 211.818 159.601C204.474 159.601 198.52 165.548 198.52 172.883C198.52 180.218 204.474 186.165 211.818 186.165Z" fill="#FFD77C" stroke="#FFAB50" stroke-miterlimit="10"/>
<path d="M211.818 183.41C217.639 183.41 222.357 178.697 222.357 172.883C222.357 167.069 217.639 162.356 211.818 162.356C205.997 162.356 201.279 167.069 201.279 172.883C201.279 178.697 205.997 183.41 211.818 183.41Z" fill="#FFD77C" stroke="#FFAB50" stroke-miterlimit="10"/>
<path d="M211.818 180.904C216.253 180.904 219.848 177.313 219.848 172.883C219.848 168.453 216.253 164.862 211.818 164.862C207.383 164.862 203.788 168.453 203.788 172.883C203.788 177.313 207.383 180.904 211.818 180.904Z" fill="#FFD77C" stroke="#FFAB50" stroke-miterlimit="10"/>
<path d="M211.818 177.392C214.311 177.392 216.332 175.373 216.332 172.883C216.332 170.393 214.311 168.374 211.818 168.374C209.325 168.374 207.304 170.393 207.304 172.883C207.304 175.373 209.325 177.392 211.818 177.392Z" fill="#FFD77C" stroke="#FFAB50" stroke-miterlimit="10"/>
<path d="M176.356 169.014H231.762V171.613C231.762 174.179 231.256 176.72 230.273 179.09C229.29 181.461 227.849 183.615 226.032 185.429C224.216 187.244 222.059 188.683 219.686 189.665C217.312 190.647 214.768 191.152 212.199 191.152H195.918C193.349 191.152 190.806 190.647 188.432 189.665C186.059 188.683 183.902 187.244 182.086 185.429C180.269 183.615 178.828 181.461 177.845 179.09C176.862 176.72 176.356 174.179 176.356 171.613V169.014Z" fill="#6C63FF"/>
<path opacity="0.1" d="M226.764 169.009C226.619 174.782 224.223 180.269 220.085 184.301C215.947 188.333 210.395 190.59 204.614 190.59H193.615C195.22 190.956 196.86 191.143 198.506 191.147H209.588C212.499 191.149 215.382 190.577 218.073 189.465C220.763 188.353 223.207 186.723 225.267 184.667C227.326 182.611 228.959 180.17 230.074 177.483C231.188 174.797 231.762 171.917 231.762 169.009H226.764Z" fill="black"/>
<path d="M278.306 275.816V269.177H134.248V275.816H278.306Z" fill="#40414D"/>
<path d="M80.2356 245.994H74.4207V298.838H80.2356V245.994Z" fill="#40414D"/>
<path d="M126.163 245.994H120.348V298.838H126.163V245.994Z" fill="#40414D"/>
<path d="M130.819 237.284C130.819 240.811 118.847 243.674 104.077 243.674C89.3078 243.674 77.9175 240.816 77.9175 237.284C77.9175 233.753 89.3078 230.895 104.077 230.895C118.847 230.895 130.819 233.772 130.819 237.284Z" fill="#F6C6CD"/>
<path d="M69.7698 237.279H130.815V242.604C130.815 243.964 130.274 245.269 129.311 246.231C128.347 247.192 127.041 247.733 125.679 247.733H78.5729C76.2382 247.733 73.9991 246.806 72.3482 245.158C70.6972 243.509 69.7698 241.272 69.7698 238.94V237.279Z" fill="#40414D"/>
<path d="M59.4032 176.181L60.6626 175.897C61.5483 175.697 62.4771 175.857 63.2447 176.341C64.0123 176.825 64.5559 177.594 64.7558 178.479L80.0019 245.941L78.0936 246.371C76.4918 246.732 74.812 246.443 73.4237 245.567C72.0354 244.691 71.0523 243.3 70.6908 241.7L56.808 180.271C56.7088 179.832 56.6973 179.378 56.7741 178.935C56.851 178.492 57.0146 178.068 57.2557 177.688C57.4968 177.308 57.8106 176.979 58.1791 176.72C58.5476 176.462 58.9635 176.278 59.4032 176.181Z" fill="#40414D"/>
<path d="M328.86 299.776H334.675V246.932H328.86V299.776Z" fill="#40414D"/>
<path d="M282.932 299.776H288.747V246.932H282.932V299.776Z" fill="#40414D"/>
<path d="M278.286 238.222C278.286 241.749 290.259 244.611 305.028 244.611C319.798 244.611 331.188 241.754 331.188 238.222C331.188 234.69 319.793 231.818 305.028 231.818C290.264 231.818 278.286 234.695 278.286 238.222Z" fill="#F6C6CD"/>
<path d="M330.523 248.676H283.417C282.055 248.676 280.748 248.135 279.785 247.173C278.822 246.211 278.281 244.907 278.281 243.547V238.222H339.326V239.883C339.326 242.215 338.399 244.451 336.748 246.1C335.097 247.749 332.858 248.676 330.523 248.676Z" fill="#40414D"/>
<path d="M331.011 247.309L329.103 246.878L344.351 179.407C344.551 178.522 345.094 177.753 345.862 177.269C346.63 176.785 347.559 176.625 348.444 176.825L349.704 177.108C350.589 177.308 351.359 177.851 351.844 178.618C352.329 179.385 352.489 180.312 352.289 181.197L338.404 242.636C338.043 244.234 337.062 245.624 335.676 246.5C334.289 247.376 332.612 247.667 331.011 247.309V247.309Z" fill="#40414D"/>
<path d="M333.081 217.652L334.798 217.11C334.798 217.11 331.863 197.532 331.892 179.985C331.892 179.497 331.892 178.974 331.892 178.471C331.927 177.377 331.966 176.293 332.02 175.233C332.088 173.875 332.103 172.58 332.093 171.325C332.254 154.428 325.588 147.291 325.588 147.291C325.588 147.291 317.763 136.144 313.073 133.976C312.667 132.705 312.203 131.074 311.792 129.179C311.944 129.076 312.09 128.973 312.232 128.866C314.169 127.431 316.022 125.886 317.783 124.24C320.189 121.988 322.498 119.243 322.37 116.146C322.384 115.844 322.374 115.542 322.341 115.242C321.896 111.505 318.008 108.692 316.438 105.15C315.118 102.175 315.514 98.8636 314.36 95.8447C313.205 92.8259 309.176 90.0172 306.134 91.6047C305.014 92.1909 304.339 93.2265 303.405 94.0129C301.086 95.9669 297.35 96.1476 294.181 95.2586C291.012 94.3695 290.073 90.745 285.642 90.7352C286.035 90.867 286.411 91.0458 286.762 91.2677C286.392 91.2054 286.017 91.1727 285.642 91.17C286.543 91.4548 287.342 91.9944 287.943 92.7235C288.544 93.4526 288.92 94.3399 289.026 95.2781C289.019 95.3959 289.006 95.5133 288.987 95.6298C287.217 96.5823 284.889 96.0401 282.766 96.0059C280.644 95.9717 278.228 97.0415 278.438 98.7756C278.402 98.9727 278.402 99.1745 278.438 99.3716C278.717 100.686 280.477 101.677 280.693 102.894C280.693 102.928 280.693 102.957 280.693 102.991C276.765 104.952 272.515 106.189 268.148 106.645C268.006 106.645 268.07 106.816 268.275 107.065H268.148C267.351 107.148 272.926 111.549 273.562 111.838C275.89 112.893 278.673 113.669 281.138 114.48L281.353 114.549C280.522 116.476 280.095 118.552 280.096 120.65C280.096 128.172 285.51 134.493 292.841 136.281C294.21 137.878 295.648 139.632 296.959 141.376H296.866C296.866 141.376 288.439 152.572 288.708 169.293C288.684 171.388 288.795 173.483 289.041 175.565C283.622 175.257 271.977 173.831 263.121 167.353C251.173 158.624 237.846 161.242 240.624 166.479C243.402 171.715 257.628 176.078 259.922 176.517C260.137 176.556 260.636 176.674 261.35 176.849C258.523 177.382 256.587 178.315 256.704 179.57C256.934 181.969 269.112 189.609 276.462 190.043C281.319 190.331 287.163 191.826 291.775 193.14C292.22 203.179 289.789 206.188 289.789 206.188C289.789 206.188 290.513 206.632 291.711 207.262L291.198 208.728C288.214 210.447 284.537 212.24 281.191 212.963C276.929 213.838 272.785 215.215 268.847 217.066L252.302 225.053C250.825 225.737 249.547 226.787 248.588 228.102C247.63 229.418 247.023 230.956 246.825 232.57C246.463 235.956 247.485 240.186 253.021 243.542C253.364 246.292 255.046 249.501 259.462 252.442C268.021 258.128 290.513 275.161 293.574 277.486C293.633 281.643 293.085 289.981 287.95 291.281C281.514 292.912 286.693 299.096 291.897 298.852C293.132 299.319 294.476 299.417 295.765 299.136C301.282 297.826 321.5 290.831 322.879 280.368C322.936 279.915 322.962 279.458 322.957 279C323.038 277.217 322.592 275.449 321.676 273.915C321.892 274.388 322.067 274.878 322.199 275.381C320.527 271.571 316.453 269.177 313.284 267.829C313.284 267.795 313.284 267.756 313.284 267.721C312.795 267.531 312.306 267.375 311.905 267.233C311.913 266.95 311.891 266.667 311.841 266.388L280.135 244.567C280.135 244.567 293.922 233.22 308.168 234.969C322.414 236.718 324.684 234.134 324.684 234.134C324.684 234.134 331.99 227.192 332.724 219.201L333.184 219.079C333.184 219.079 333.149 218.575 333.081 217.652Z" fill="url(#paint0_linear)"/>
<path d="M294.362 274.487C294.362 274.487 295.658 288.736 289.173 290.465C282.688 292.194 288.742 299.101 293.926 297.792C299.111 296.483 318.14 289.586 319.436 279.23C320.732 268.874 306.466 265.411 306.466 265.411L294.362 274.487Z" fill="#B8616E"/>
<path opacity="0.05" d="M294.362 274.487C294.362 274.487 295.658 288.736 289.173 290.465C282.688 292.194 288.742 299.101 293.926 297.792C299.111 296.483 318.14 289.586 319.436 279.23C320.732 268.874 306.466 265.411 306.466 265.411L294.362 274.487Z" fill="black"/>
<path d="M296.969 274.917C296.969 274.917 298.265 289.166 291.78 290.895C285.295 292.624 291.349 299.531 296.533 298.222C301.717 296.913 320.747 290.016 322.043 279.66C323.339 269.304 309.073 265.841 309.073 265.841L296.969 274.917Z" fill="#B8616E"/>
<path opacity="0.1" d="M310.369 266.28L298.274 275.351C298.274 275.351 298.328 275.967 298.362 276.949C302.93 275.698 312.882 272.377 313.034 267.179C312.164 266.827 311.274 266.526 310.369 266.28V266.28Z" fill="black"/>
<path d="M302.803 142.123H297.614V146.012H302.803V142.123Z" fill="#F8BDC5"/>
<path d="M297.834 204.952C297.834 204.952 289.593 211.419 282.825 212.953C278.8 213.823 274.899 215.186 271.21 217.012L255.643 224.916C254.229 225.626 253.016 226.68 252.116 227.979C251.215 229.279 250.656 230.784 250.488 232.355C250.043 236.752 251.813 242.535 262.377 245.974L295.668 273.613L306.046 264.976L270.593 237.778L297.834 220.935V204.952Z" fill="#758AC8"/>
<path opacity="0.1" d="M297.834 204.952C297.834 204.952 289.593 211.419 282.825 212.953C278.8 213.823 274.899 215.186 271.21 217.012L255.643 224.916C254.229 225.626 253.016 226.68 252.116 227.979C251.215 229.279 250.656 230.784 250.488 232.355C250.043 236.752 251.813 242.535 262.377 245.974L295.668 273.613L306.046 264.976L270.593 237.778L297.834 220.935V204.952Z" fill="black"/>
<path d="M293.076 176.024C293.076 176.024 277.078 176.454 265.835 167.817C254.591 159.181 242.057 161.77 244.649 166.953C247.241 172.136 260.646 176.454 262.808 176.884C264.969 177.313 296.098 185.955 296.098 185.955L293.076 176.024Z" fill="#F8BDC5"/>
<path opacity="0.05" d="M293.076 176.024C293.076 176.024 277.078 176.454 265.835 167.817C254.591 159.181 242.057 161.77 244.649 166.953C247.241 172.136 260.646 176.454 262.808 176.884C264.969 177.313 296.098 185.955 296.098 185.955L293.076 176.024Z" fill="black"/>
<path d="M294.807 201.073L289.618 216.622C289.618 216.622 260.435 234.544 258.054 236.918C256.205 238.764 253.73 245.989 262.377 252.031C271.024 258.074 294.802 277.081 294.802 277.081C294.802 277.081 312.961 273.173 311.665 265.846L281.832 244.255C281.832 244.255 294.802 233.02 308.207 234.754C321.612 236.488 323.774 233.889 323.774 233.889C323.774 233.889 334.152 223.514 330.689 213.598C327.227 203.682 294.807 201.073 294.807 201.073Z" fill="#758AC8"/>
<path d="M288.322 130.703C288.322 130.703 303.023 146.681 302.158 151.429C301.292 156.177 313.831 137.61 313.831 137.61C313.831 137.61 309.919 128.109 310.804 117.743L288.322 130.703Z" fill="#F8BDC5"/>
<path opacity="0.1" d="M301.15 145.357C302.153 144.3 303.209 143.294 304.314 142.343C306.526 140.531 308.556 138.507 310.374 136.301C313.401 132.393 324.64 149.255 324.64 149.255C324.64 149.255 331.555 157.027 330.694 175.599C329.833 194.171 331.775 219 331.775 219L329.159 219.728C326.955 220.463 324.61 220.675 322.31 220.349C320.009 220.023 317.817 219.166 315.905 217.848C312.452 215.464 308.08 212.963 304.754 212.738C298.269 212.308 292.43 208.635 292.43 208.635C292.43 208.635 295.242 201.943 290.919 180.347C286.595 158.751 297.614 143.403 297.614 143.403C297.614 143.403 298.485 148.102 301.15 145.357Z" fill="black"/>
<path d="M333.286 217.051L330.694 217.916L329.154 218.429C326.95 219.164 324.605 219.377 322.305 219.05C320.005 218.724 317.812 217.867 315.9 216.548C312.452 214.169 308.075 211.663 304.75 211.439C298.274 211.004 290.938 206.256 290.938 206.256C290.938 206.256 295.262 200.643 290.938 179.048C286.615 157.452 297.639 142.123 297.639 142.123C297.639 142.123 298.509 146.798 301.175 144.048C302.175 142.992 303.23 141.987 304.334 141.039C306.546 139.227 308.576 137.203 310.393 134.996C313.421 131.089 324.659 147.951 324.659 147.951C324.659 147.951 331.575 155.723 330.714 174.295C330.621 176.249 330.582 178.261 330.577 180.298C330.513 197.678 333.286 217.051 333.286 217.051Z" fill="#5E52AD"/>
<path opacity="0.1" d="M308.642 174.729L309.073 184.23C309.073 184.23 286.155 185.525 281.402 180.777C276.648 176.029 294.362 194.742 298.274 195.89C301.947 196.97 311.43 197.922 316.404 198.02C317.825 198.066 319.228 197.698 320.444 196.962C321.659 196.226 322.634 195.153 323.251 193.873C323.83 192.614 324.018 191.21 323.789 189.843C322.923 184.23 323.789 172.136 323.789 172.136L308.642 174.729Z" fill="black"/>
<path d="M308.643 173.865L309.073 183.366C309.073 183.366 286.155 184.66 281.402 179.912C276.648 175.164 259.448 176.214 259.785 179.912C260 182.286 271.459 189.843 278.37 190.278C285.28 190.713 294.362 193.878 298.274 195.026C301.947 196.105 311.43 197.058 316.404 197.156C317.825 197.201 319.228 196.834 320.444 196.097C321.659 195.361 322.635 194.288 323.251 193.008C323.831 191.749 324.018 190.345 323.789 188.978C322.923 183.366 323.789 171.271 323.789 171.271L308.643 173.865Z" fill="#F8BDC5"/>
<path opacity="0.1" d="M313.832 146.227C313.832 146.227 303.889 147.521 305.185 162.205C306.481 176.889 308.212 178.183 308.212 178.183C308.212 178.183 322.913 176.889 324.64 176.454C326.366 176.019 325.505 160.046 325.505 160.046C325.505 160.046 325.07 145.797 313.832 146.227Z" fill="black"/>
<path d="M313.832 145.797C313.832 145.797 303.889 147.091 305.185 161.775C306.481 176.459 308.212 177.753 308.212 177.753C308.212 177.753 322.913 176.459 324.64 176.024C326.366 175.589 325.505 159.616 325.505 159.616C325.505 159.616 325.07 145.357 313.832 145.797Z" fill="#5E52AD"/>
<path opacity="0.1" d="M310.154 127.01C309.474 123.59 310.868 122.535 311.234 118.159L288.738 131.113C288.738 131.113 291.315 133.917 294.244 137.517C295.554 137.848 296.899 138.012 298.25 138.005C304.143 138.03 307.366 131.709 310.154 127.01Z" fill="black"/>
<path d="M297.829 137.59C306.664 137.59 313.827 130.437 313.827 121.612C313.827 112.788 306.664 105.634 297.829 105.634C288.994 105.634 281.832 112.788 281.832 121.612C281.832 130.437 288.994 137.59 297.829 137.59Z" fill="#F8BDC5"/>
<path opacity="0.1" d="M301.864 116.761C299.419 118.315 299.385 121.827 300.959 124.26C302.534 126.692 305.248 128.299 307.86 129.814C308.618 130.253 309.454 130.708 310.305 130.61C310.96 130.483 311.566 130.176 312.056 129.726C313.884 128.301 315.628 126.773 317.279 125.149C319.656 122.814 321.94 119.937 321.568 116.678C321.148 112.981 317.49 110.196 316.013 106.694C314.77 103.763 315.142 100.476 314.056 97.4811C312.971 94.4868 309.166 91.7171 306.319 93.2851C305.268 93.8615 304.632 94.8922 303.752 95.6689C301.571 97.5935 298.054 97.784 295.071 96.9047C292.088 96.0255 291.203 92.4352 287.041 92.4254C289.109 93.1532 290.508 95.3074 290.19 97.2711C288.522 98.2139 286.331 97.6765 284.321 97.6424C282.311 97.6082 279.92 98.7317 280.267 100.539C280.57 102.004 282.688 103.094 282.375 104.559C278.701 106.492 274.696 107.719 270.569 108.174C269.821 108.257 275.064 112.609 275.66 112.898C277.846 113.943 280.473 114.71 282.786 115.511C289.07 117.675 295.506 118.447 301.864 116.761Z" fill="black"/>
<path d="M301.864 116.327C299.419 117.88 299.385 121.392 300.959 123.825C302.534 126.258 305.248 127.865 307.86 129.379C308.618 129.819 309.454 130.273 310.305 130.175C310.96 130.048 311.566 129.742 312.056 129.291C313.884 127.867 315.628 126.338 317.279 124.714C319.656 122.379 321.94 119.502 321.568 116.244C321.148 112.546 317.49 109.762 316.013 106.259C314.77 103.328 315.142 100.041 314.056 97.0464C312.971 94.052 309.166 91.2823 306.319 92.8504C305.268 93.4268 304.632 94.4575 303.752 95.2341C301.571 97.1588 298.054 97.3493 295.071 96.47C292.088 95.5907 291.203 92.0004 287.041 91.9906C289.109 92.7185 290.508 94.8727 290.19 96.8364C288.522 97.7791 286.331 97.2418 284.321 97.2076C282.311 97.1734 279.92 98.2969 280.267 100.104C280.57 101.57 282.688 102.659 282.375 104.124C278.701 106.058 274.696 107.284 270.569 107.739C269.821 107.822 275.064 112.175 275.66 112.463C277.846 113.508 280.473 114.275 282.786 115.076C289.07 117.245 295.506 118.002 301.864 116.327Z" fill="#916168"/>
<path opacity="0.1" d="M320.913 273.285C321.607 274.885 321.849 276.643 321.612 278.37C320.316 288.736 301.292 295.643 296.103 296.933C293.369 297.616 290.391 296.019 289.144 294.099C289.946 296.356 293.398 298.579 296.538 297.797C301.727 296.503 320.752 289.591 322.048 279.235C322.331 277.181 321.932 275.091 320.913 273.285Z" fill="white"/>
<path d="M183.511 285.062C183.125 284.193 181.119 282.498 171.451 282.132C164.829 281.882 162.574 278.39 161.963 274.98C164.139 274.697 165.841 274.306 166.399 273.764C166.399 273.764 166.369 273.608 166.32 273.329L166.399 273.271C165.976 270.811 165.755 268.321 165.738 265.826C165.726 263.691 165.952 261.561 166.413 259.476C166.683 258.097 166.796 256.693 166.751 255.29C166.805 246.985 163.885 232.39 163.885 232.39L163.484 220.261C163.444 218.747 162.996 217.273 162.188 215.992C161.38 214.711 160.241 213.672 158.892 212.982C157.931 212.486 156.867 212.222 155.786 212.211C155.786 212.211 140.459 209.797 126.662 208.483C125.684 207.697 122.236 205.577 114.333 206.793L109.785 193.497C109.748 193.336 109.722 193.173 109.707 193.008C109.868 191.318 110.998 188.773 116.265 188.612L117.365 189.589C117.365 189.589 117.561 189.203 117.889 188.612C124.422 188.539 160.016 188.177 161.85 188.612C163.87 189.101 181.565 185.163 182.073 184.675C188.949 177.978 161.85 181.226 161.85 181.226C159.185 181.661 150.573 181.143 141.75 180.425C146.117 173.884 150.225 151.683 150.225 151.683C150.225 151.683 165.875 143.804 161.347 139.373C156.818 134.943 143.149 149.221 143.149 149.221C143.149 149.221 137.588 165.473 135.06 170.397C134.081 172.351 132.815 172.751 131.685 172.526C132.199 172.116 132.531 171.872 132.531 171.872C132.531 171.872 121.41 163.006 120.397 159.562C120.209 158.998 119.96 158.456 119.654 157.945C119.121 154.824 118.187 151.751 115.908 149.705C115.525 149.294 115.102 148.923 114.646 148.596C114.03 148.156 113.33 147.775 112.749 147.296C113.076 145.792 113.458 144.229 113.854 142.714C122.109 141.737 128.526 134.899 128.526 126.595C128.524 125.342 128.375 124.095 128.081 122.877C129.314 122.958 130.548 122.719 131.662 122.184C132.776 121.648 133.733 120.833 134.438 119.819C136.106 117.338 136.052 113.958 134.654 111.339C134.075 110.276 133.318 109.321 132.414 108.516C130.973 107.066 129.215 105.969 127.279 105.311C125.601 104.73 123.748 104.383 122.417 103.245C121.823 102.469 121.282 101.653 120.798 100.803C120.24 99.9683 119.583 99.2041 118.842 98.5265C116.397 96.0108 112.944 94.4623 109.428 93.7785C105.144 92.9432 100.718 93.2411 96.36 93.5391C94.7315 93.6515 92.8192 93.9397 92.0856 95.3563C91.533 96.4211 91.8949 97.6961 91.8215 98.8831C91.5917 102.659 87.2683 104.745 83.5075 105.658C79.7466 106.572 75.2619 107.363 73.4474 110.675C71.7993 113.664 72.9584 117.289 73.4866 120.645C74.3663 126.537 73.0563 132.547 69.8039 137.541C68.1509 140.067 66.0186 142.314 64.7128 145.025C63.2662 148.047 62.9303 151.481 63.764 154.726C64.0085 155.674 64.3607 156.641 64.1846 157.608C63.9845 158.406 63.5915 159.142 63.0402 159.753C60.7913 162.526 57.9925 164.806 54.8196 166.447C51.6467 168.089 48.1682 169.058 44.6025 169.293C44.902 170.284 45.4871 171.166 46.2849 171.828C47.2985 172.829 48.4805 173.644 49.7768 174.236C53.192 175.947 56.7833 177.282 60.4873 178.217C62.9815 178.847 65.5882 179.297 68.1264 178.867C70.6647 178.437 73.1393 176.986 74.181 174.69C74.7875 173.362 74.8755 171.857 75.4135 170.504C76.4845 167.798 79.1401 166.044 80.935 163.724C80.3306 169.703 80.0449 175.71 80.0791 181.72C80.0791 183.6 80.0791 185.295 80.0791 186.868C80.0791 193.653 79.5901 198.333 75.3792 206.808C74.8774 207.699 74.6575 208.721 74.7484 209.739C74.6568 210.289 74.7101 210.853 74.903 211.377C75.096 211.9 75.4219 212.364 75.8487 212.723C75.5553 214.414 75.4129 216.127 75.4233 217.843C75.3646 224.017 77.4529 232.307 88.5252 234.407L108.239 233.43C108.239 233.43 136.043 228.013 143.623 231.965C144.249 232.098 144.81 232.441 145.213 232.937C145.616 233.433 145.837 234.052 145.838 234.69C145.815 235.101 145.751 235.508 145.648 235.907C145.437 237.186 145.356 238.484 145.408 239.78C145.374 248.085 147.164 266.93 147.164 266.93V274.922C145.902 276.817 144.347 279.621 144.547 281.687C144.547 281.731 144.547 281.78 144.547 281.824C144.547 281.868 144.547 281.946 144.577 282.005C144.606 282.063 144.577 282.112 144.611 282.166C144.645 282.22 144.64 282.268 144.655 282.322C144.67 282.376 144.694 282.439 144.719 282.493C144.743 282.547 144.753 282.581 144.772 282.625C144.792 282.669 144.836 282.752 144.87 282.811L144.929 282.913C144.988 283.007 145.053 283.097 145.124 283.182C147.653 286.113 160.285 291.784 164.335 291.554C168.634 291.31 183.037 292.043 183.545 285.644C183.61 285.453 183.597 285.244 183.511 285.062V285.062Z" fill="url(#paint1_linear)"/>
<path d="M147.575 272.694C147.575 272.694 141.706 280.021 144.151 282.952C146.597 285.883 158.823 291.486 162.736 291.256C166.893 291.012 180.831 291.745 181.32 285.395C181.32 285.395 182.298 282.464 169.582 281.975C156.867 281.487 160.779 268.298 160.779 268.298L147.575 272.694Z" fill="#594C76"/>
<path opacity="0.1" d="M77.6387 211.146C77.6387 211.146 71.77 231.173 89.3762 234.593L108.45 233.616C108.45 233.616 135.348 228.242 142.684 232.15C142.684 232.15 145.618 232.639 144.64 236.547C143.662 240.454 146.107 266.832 146.107 266.832V275.625C146.107 275.625 162.736 275.625 164.692 273.671C164.692 273.671 163.225 265.855 164.692 259.505C166.159 253.155 162.247 233.127 162.247 233.127L161.86 221.072C161.831 219.582 161.406 218.127 160.627 216.856C159.848 215.585 158.744 214.545 157.429 213.842C156.504 213.352 155.474 213.091 154.426 213.08C154.426 213.08 121.17 207.707 109.433 208.684C97.6952 209.661 77.6387 211.146 77.6387 211.146Z" fill="black"/>
<path d="M77.6387 210.657C77.6387 210.657 71.77 230.685 89.3762 234.104L108.45 233.127C108.45 233.127 135.348 227.754 142.684 231.662C142.684 231.662 145.618 232.15 144.64 236.058C143.662 239.966 146.107 266.344 146.107 266.344V275.137C146.107 275.137 162.736 275.137 164.692 273.183C164.692 273.183 163.225 265.367 164.692 259.017C166.159 252.667 162.247 232.639 162.247 232.639L161.86 220.583C161.831 219.094 161.406 217.638 160.627 216.368C159.848 215.097 158.744 214.057 157.429 213.354C156.504 212.864 155.474 212.602 154.426 212.592C154.426 212.592 121.17 207.218 109.433 208.195C97.6952 209.172 77.6387 210.657 77.6387 210.657Z" fill="#8B9CD1"/>
<path d="M128.012 171.09C128.012 171.09 131.925 175.975 134.37 171.09C136.815 166.205 142.195 150.086 142.195 150.086C142.195 150.086 155.4 135.92 159.801 140.316C164.203 144.712 149.042 152.528 149.042 152.528C149.042 152.528 143.662 182.325 138.771 182.814C133.881 183.302 126.545 182.814 126.545 182.814L124.1 177.441L128.012 171.09Z" fill="#F8BDC5"/>
<path opacity="0.05" d="M128.012 171.09C128.012 171.09 131.925 175.975 134.37 171.09C136.815 166.205 142.195 150.086 142.195 150.086C142.195 150.086 155.4 135.92 159.801 140.316C164.203 144.712 149.042 152.528 149.042 152.528C149.042 152.528 143.662 182.325 138.771 182.814C133.881 183.302 126.545 182.814 126.545 182.814L124.1 177.441L128.012 171.09Z" fill="black"/>
<path d="M110.406 146.666C110.406 146.666 119.209 156.924 120.187 160.344C121.165 163.763 131.925 172.556 131.925 172.556C131.925 172.556 124.1 178.417 125.567 181.348C127.034 184.279 115.297 171.579 115.297 171.579L101.603 151.551L110.406 146.666Z" fill="#EB6475"/>
<path opacity="0.1" d="M110.406 146.666C110.406 146.666 119.209 156.924 120.187 160.344C121.165 163.763 131.925 172.556 131.925 172.556C131.925 172.556 124.1 178.417 125.567 181.348C127.034 184.279 115.297 171.579 115.297 171.579L101.603 151.551L110.406 146.666Z" fill="black"/>
<path d="M116.275 134.943C116.275 134.943 111.873 149.109 111.873 154.482C111.873 159.855 93.2887 153.016 93.7778 150.086C94.2669 147.155 104.537 136.408 105.026 132.012C105.515 127.616 116.275 134.943 116.275 134.943Z" fill="#F8BDC5"/>
<path opacity="0.1" d="M101.603 144.712C101.603 144.712 84.4856 140.316 82.0402 165.228C79.5949 190.141 83.9965 193.072 76.6606 208.215C69.3246 223.358 126.545 210.169 126.545 210.169C126.545 210.169 123.611 206.749 114.318 208.215L109.917 195.026C109.917 195.026 108.45 189.164 116.764 189.164C125.078 189.164 121.165 172.067 121.165 172.067C121.165 172.067 116.764 157.413 114.318 155.947C111.873 154.482 107.471 145.689 101.603 144.712Z" fill="black"/>
<path d="M101.603 143.735C101.603 143.735 84.4856 139.339 82.0402 164.252C79.5949 189.164 83.9965 192.095 76.6606 207.238C69.3246 222.381 126.545 209.192 126.545 209.192C126.545 209.192 123.611 205.772 114.318 207.238L109.917 194.049C109.917 194.049 108.45 188.187 116.764 188.187C125.078 188.187 121.165 171.09 121.165 171.09C121.165 171.09 116.764 156.436 114.318 154.97C111.873 153.505 107.471 144.712 101.603 143.735Z" fill="#EB6475"/>
<path d="M118.72 178.906C118.72 178.906 154.422 182.814 160.29 181.837C160.29 181.837 186.504 178.613 179.853 185.256C179.364 185.745 162.247 189.652 160.29 189.164C158.334 188.676 116.764 189.164 116.764 189.164L116.275 184.279L118.72 178.906Z" fill="#F8BDC5"/>
<path opacity="0.1" d="M91.3324 166.694L117.253 190.141C117.253 190.141 122.143 180.371 123.611 180.371C125.078 180.371 106.004 151.551 106.004 151.551C106.004 151.551 101.114 145.689 98.1793 148.62C95.2449 151.551 86.4418 149.597 91.3324 166.694Z" fill="black"/>
<path d="M90.8434 165.717L116.764 189.164C116.764 189.164 121.654 179.394 123.122 179.394C124.589 179.394 105.515 150.574 105.515 150.574C105.515 150.574 100.625 144.712 97.6903 147.643C94.7559 150.574 85.9528 148.62 90.8434 165.717Z" fill="#EB6475"/>
<path d="M111.873 143.735C120.786 143.735 128.012 136.518 128.012 127.616C128.012 118.713 120.786 111.496 111.873 111.496C102.96 111.496 95.7339 118.713 95.7339 127.616C95.7339 136.518 102.96 143.735 111.873 143.735Z" fill="#F8BDC5"/>
<path opacity="0.1" d="M126.007 123.566C128.746 124.646 132.101 123.351 133.715 120.894C135.329 118.437 135.28 115.091 133.92 112.482C132.56 109.874 130.047 107.979 127.274 106.992C125.591 106.396 123.718 106.054 122.427 104.823C121.61 104.046 121.126 102.996 120.515 102.048C118.231 98.4923 114.157 96.3919 110.015 95.5663C105.872 94.7408 101.588 95.0339 97.3724 95.327C95.7976 95.4393 93.9489 95.7226 93.2349 97.1294C92.7018 98.1846 93.0491 99.4497 92.9806 100.627C92.7605 104.374 88.579 106.45 84.9257 107.348C81.2724 108.247 77.0371 109.092 75.257 112.394C73.6626 115.36 74.8021 118.955 75.2961 122.286C76.1408 128.105 74.8782 134.035 71.7357 139.007C70.1365 141.513 68.0775 143.74 66.8109 146.432C65.4097 149.44 65.0851 152.837 65.8914 156.055C66.1311 156.998 66.4685 157.955 66.3022 158.912C66.1106 159.699 65.7314 160.428 65.197 161.037C63.0536 163.777 60.3587 166.036 57.2864 167.67C54.2141 169.304 50.8327 170.276 47.3608 170.524C47.9184 172.619 49.948 173.943 51.8798 174.92C55.1761 176.613 58.6501 177.937 62.2381 178.867C64.6492 179.492 67.1728 179.937 69.6279 179.512C72.083 179.087 74.4745 177.646 75.4966 175.369C76.0835 174.05 76.1715 172.561 76.6899 171.212C77.8588 168.189 80.9741 166.362 82.6467 163.582C84.2459 160.925 84.867 160.612 85.273 157.545C85.6789 154.477 86.5739 151.165 89.0974 149.363C91.7384 147.472 95.4552 147.834 98.3896 149.284C101.324 150.735 103.138 150.169 105.589 152.298C109.887 156.028 114.698 159.124 119.874 161.492C119.385 157.232 118.598 152.479 115.135 149.944C114.157 149.216 112.92 148.659 112.401 147.546C111.575 145.772 112.988 143.608 112.347 141.757C111.707 139.906 109.271 139.222 108.19 137.541C107.271 136.115 107.52 134.176 108.381 132.71C109.242 131.245 110.602 130.16 111.956 129.135C113.159 128.226 114.379 127.339 115.614 126.472C116.731 125.765 117.734 124.892 118.588 123.884C119.077 123.214 119.4 121.749 120.08 121.275C121.791 120.093 124.422 122.946 126.007 123.566Z" fill="black"/>
<path d="M125.518 123.078C128.256 124.157 131.611 122.863 133.225 120.406C134.839 117.948 134.79 114.602 133.431 111.994C132.071 109.385 129.557 107.49 126.784 106.503C125.102 105.907 123.229 105.565 121.938 104.335C121.121 103.558 120.637 102.508 120.026 101.56C117.742 98.0038 113.668 95.9034 109.525 95.0778C105.383 94.2523 101.099 94.5454 96.8831 94.8385C95.3083 94.9508 93.4597 95.2341 92.7456 96.641C92.2126 97.6961 92.5598 98.9612 92.4913 100.138C92.2713 103.885 88.0898 105.961 84.4365 106.86C80.7832 107.759 76.5479 108.604 74.7677 111.906C73.1734 114.871 74.3129 118.466 74.8068 121.798C75.6515 127.617 74.389 133.546 71.2465 138.518C69.6472 141.024 67.5883 143.252 66.3216 145.943C64.9204 148.951 64.5958 152.348 65.4022 155.566C65.6418 156.509 65.9793 157.467 65.813 158.424C65.6213 159.211 65.2421 159.94 64.7077 160.549C62.5643 163.288 59.8694 165.548 56.7971 167.182C53.7248 168.816 50.3435 169.788 46.8716 170.035C47.4291 172.131 49.4587 173.454 51.3905 174.431C54.6869 176.125 58.1608 177.449 61.7489 178.378C64.1599 179.004 66.6835 179.448 69.1386 179.023C71.5937 178.598 73.9852 177.157 75.0074 174.881C75.5942 173.562 75.6823 172.072 76.2007 170.724C77.3695 167.7 80.4848 165.873 82.1574 163.094C83.7567 160.437 84.3778 160.124 84.7837 157.056C85.1896 153.989 86.0846 150.677 88.6082 148.874C91.2491 146.984 94.966 147.345 97.9004 148.796C100.835 150.247 102.649 149.68 105.099 151.81C109.398 155.539 114.208 158.635 119.385 161.003C118.896 156.744 118.108 151.991 114.646 149.455C113.668 148.728 112.43 148.171 111.912 147.057C111.085 145.284 112.499 143.12 111.858 141.269C111.218 139.417 108.782 138.733 107.701 137.053C106.782 135.627 107.031 133.687 107.892 132.222C108.753 130.756 110.112 129.672 111.467 128.646C112.67 127.738 113.889 126.85 115.125 125.984C116.242 125.276 117.244 124.403 118.099 123.395C118.588 122.726 118.91 121.26 119.59 120.787C121.302 119.604 123.933 122.457 125.518 123.078Z" fill="#916168"/>
<g opacity="0.1">
<path opacity="0.1" d="M160.222 272.147C160.259 270.847 160.446 269.555 160.78 268.298L160.535 268.381C160.291 269.621 160.186 270.884 160.222 272.147V272.147Z" fill="white"/>
<path opacity="0.1" d="M162.736 290.279C158.823 290.509 146.597 284.906 144.151 281.975C143.83 281.578 143.633 281.096 143.584 280.588C143.512 281 143.526 281.422 143.623 281.829C143.721 282.235 143.9 282.618 144.151 282.952C146.597 285.883 158.823 291.486 162.736 291.256C166.893 291.012 180.831 291.745 181.32 285.395C181.357 285.219 181.332 285.037 181.252 284.877C180.132 290.729 166.79 290.04 162.736 290.279Z" fill="white"/>
</g>
<path d="M182.543 144.468H182.053V164.496H182.543V144.468Z" fill="#FFD77C" stroke="#FFAB50" stroke-width="0.25" stroke-miterlimit="10"/>
<path d="M183.032 144.468H182.542V164.496H183.032V144.468Z" fill="#FFD77C" stroke="#FFAB50" stroke-width="0.25" stroke-miterlimit="10"/>
<path d="M183.521 144.468H183.032V164.496H183.521V144.468Z" fill="#FFD77C" stroke="#FFAB50" stroke-width="0.25" stroke-miterlimit="10"/>
<path d="M184.01 144.468H183.521V164.496H184.01V144.468Z" fill="#FFD77C" stroke="#FFAB50" stroke-width="0.25" stroke-miterlimit="10"/>
<path d="M184.499 144.468H184.01V164.496H184.499V144.468Z" fill="#FFD77C" stroke="#FFAB50" stroke-width="0.25" stroke-miterlimit="10"/>
<path d="M184.988 144.468H184.499V164.496H184.988V144.468Z" fill="#FFD77C" stroke="#FFAB50" stroke-width="0.25" stroke-miterlimit="10"/>
<path d="M185.477 144.468H184.988V164.496H185.477V144.468Z" fill="#FFD77C" stroke="#FFAB50" stroke-width="0.25" stroke-miterlimit="10"/>
</g>
<defs>
<linearGradient id="paint0_linear" x1="287.515" y1="299.316" x2="287.515" y2="90.7352" gradientUnits="userSpaceOnUse">
<stop stop-color="#808080" stop-opacity="0.25"/>
<stop offset="0.54" stop-color="#808080" stop-opacity="0.12"/>
<stop offset="1" stop-color="#808080" stop-opacity="0.1"/>
</linearGradient>
<linearGradient id="paint1_linear" x1="53055.7" y1="142528" x2="53055.7" y2="62007.2" gradientUnits="userSpaceOnUse">
<stop stop-color="#808080" stop-opacity="0.25"/>
<stop offset="0.54" stop-color="#808080" stop-opacity="0.12"/>
<stop offset="1" stop-color="#808080" stop-opacity="0.1"/>
</linearGradient>
<clipPath id="clip0">
<rect width="442" height="321" fill="white"/>
</clipPath>
</defs>
</svg>
