<svg width="222" height="495" viewBox="0 0 222 495" fill="none" xmlns="http://www.w3.org/2000/svg">
<path d="M115.411 95.2097C124.801 95.2097 132.413 87.5978 132.413 78.208C132.413 68.8182 124.801 61.2062 115.411 61.2062C106.021 61.2062 98.4095 68.8182 98.4095 78.208C98.4095 87.5978 106.021 95.2097 115.411 95.2097Z" fill="#442826"/>
<path d="M132.389 71.2952L121.748 68.687C117.686 68.687 113.674 67.784 110.004 66.0433C106.334 64.3026 103.096 61.7677 100.526 58.6222C97.9558 55.4766 96.117 51.7991 95.1426 47.8556C94.1682 43.912 94.0827 39.8012 94.8922 35.8206C94.8922 31.1166 95.8187 26.4586 97.6189 22.1126C99.419 17.7667 102.058 13.8179 105.384 10.4916C108.71 7.16536 112.659 4.52684 117.005 2.72668C121.351 0.92653 126.009 -1.31322e-06 130.713 0H130.713C135.417 0 140.075 0.926529 144.421 2.72668C148.767 4.52684 152.716 7.16535 156.042 10.4916C159.368 13.8179 162.007 17.7667 163.807 22.1127C165.607 26.4586 166.534 31.1166 166.534 35.8206C167.904 40.6139 167.992 45.6831 166.789 50.521C165.585 55.359 163.132 59.7959 159.674 63.3878C156.217 66.9798 151.877 69.6008 147.089 70.9885C142.3 72.3762 137.231 72.4819 132.389 71.2952Z" fill="#442826"/>
<path d="M67.152 204.434C71.1321 199.441 72.2158 193.685 69.5725 191.578C66.9293 189.471 61.56 191.81 57.58 196.803C53.5999 201.796 52.5162 207.552 55.1594 209.659C57.8027 211.766 63.1719 209.426 67.152 204.434Z" fill="#FBD4D4"/>
<path d="M51.1447 271.008C51.1447 271.008 52.5048 314.532 57.2653 339.695C62.0258 364.857 54.545 455.307 54.545 455.307L69.5065 462.107L79.0275 451.906C79.0275 451.906 75.6272 433.544 80.3877 420.623C85.1482 407.702 87.1884 351.936 87.1884 351.936L95.3492 277.128L51.1447 271.008Z" fill="#FBD4D4"/>
<path d="M106.91 283.929L149.755 362.137L188.519 433.544V448.506L208.241 442.385L201.44 426.744C201.44 426.744 198.04 365.537 173.557 341.735L152.475 281.209L106.91 283.929Z" fill="#FBD4D4"/>
<path d="M81.4078 178.858H73.927C73.927 178.858 33.1228 234.624 35.163 268.628L93.649 292.43L95.6892 287.669C95.6892 287.669 143.974 296.51 156.215 286.309L139.214 199.26L137.854 187.019L81.4078 178.858Z" fill="#2F2E41"/>
<path d="M62.7059 454.627C62.7059 454.627 72.2269 442.385 60.6656 441.705C49.1044 441.025 49.1044 448.506 49.1044 448.506L23.2618 466.188C23.2618 466.188 -19.5826 481.829 11.0205 486.59C11.0205 486.59 23.9418 489.31 40.2635 483.19C50.0666 479.508 60.4018 477.441 70.8667 477.069C70.8667 477.069 85.8282 476.389 85.8282 468.908C85.8282 461.427 78.5294 448.506 78.5294 448.506C78.5294 448.506 66.7863 456.667 62.7059 454.627Z" fill="#2F2E41"/>
<path d="M209.601 437.625C209.601 437.625 186.479 432.864 185.798 441.705C185.118 450.546 185.798 465.508 185.798 465.508C185.798 465.508 191.239 472.308 189.879 477.069C188.519 481.829 193.279 496.791 209.601 494.751C225.923 492.711 220.482 469.588 220.482 469.588L209.601 443.065V437.625Z" fill="#2F2E41"/>
<path d="M135.473 61.8863C148.056 61.8863 158.256 51.6863 158.256 39.104C158.256 26.5216 148.056 16.3216 135.473 16.3216C122.891 16.3216 112.691 26.5216 112.691 39.104C112.691 51.6863 122.891 61.8863 135.473 61.8863Z" fill="#FBD4D4"/>
<path d="M120.172 51.6852L119.832 90.7892L147.715 81.2682C147.715 81.2682 144.314 58.8259 144.994 56.7857L120.172 51.6852Z" fill="#FBD4D4"/>
<path d="M131.995 240.975C137.911 238.574 141.676 234.088 140.405 230.956C139.134 227.824 133.307 227.231 127.391 229.633C121.474 232.034 117.709 236.52 118.98 239.652C120.252 242.784 126.078 243.377 131.995 240.975Z" fill="#FBD4D4"/>
<path d="M63.9406 180.257L90.2486 142.815L104.531 169.337L88.2086 188.379L63.9406 180.257Z" fill="#F20505"/>
<path d="M77.6675 176.478C77.6675 176.478 69.5066 173.078 64.7461 179.198C59.9857 185.319 51.8248 198.24 54.5451 200.28C57.2655 202.321 66.1063 194.16 66.1063 194.16L77.6675 176.478Z" fill="#F20505"/>
<path d="M115.071 79.2281C115.071 79.2281 144.314 69.0271 147.715 70.3872C151.115 71.7473 152.475 79.2281 152.475 79.2281C152.475 79.2281 168.797 75.8277 170.837 86.7088C172.877 97.5899 157.916 145.195 157.916 145.195L142.954 173.078C142.954 173.078 150.435 184.639 137.514 188.719C124.592 192.8 77.6674 179.878 77.6674 179.878C77.6674 179.878 69.5066 170.357 77.6674 170.357C77.6674 170.357 80.3877 161.516 83.108 159.476C85.8283 157.436 81.0678 154.036 83.7881 153.356C86.5084 152.676 86.5084 151.315 86.5084 151.315C86.5084 151.315 72.907 132.954 85.1482 117.992C97.3895 103.031 99.0897 89.089 105.21 87.0489C111.331 85.0087 115.071 79.2281 115.071 79.2281Z" fill="#F20505"/>
<path d="M160.636 84.6686H170.224C170.224 84.6686 198.04 151.996 189.879 173.078C181.718 194.16 151.795 230.884 151.795 230.884C151.795 230.884 142.274 247.885 135.473 247.885C128.673 247.885 121.192 223.403 121.192 223.403L142.954 213.882L168.797 166.277L156.556 129.553L160.636 84.6686Z" fill="#F20505"/>
<path opacity="0.2" d="M86.1685 150.975L71.2065 177.498L73.9265 178.858L86.1685 150.975Z" fill="black"/>
<path opacity="0.2" d="M114.768 210.656L95.0154 287.496L96.333 287.835L116.085 210.995L114.768 210.656Z" fill="black"/>
<path d="M163.016 29.923L158.936 22.4422L152.815 26.5461C152.185 27.4146 151.355 28.1178 150.394 28.5956C149.434 29.0734 148.372 29.3117 147.3 29.29L125.93 28.8587C124.97 28.8393 124.025 28.6242 123.152 28.2265C122.279 27.8289 121.496 27.257 120.852 26.5461C119.172 27.1688 117.667 28.1877 116.465 29.5162C115.263 30.8447 114.399 32.4436 113.947 34.1773L111.331 44.2045V10.201H152.135L163.016 29.923Z" fill="#442826"/>
</svg>
