<svg width="575" height="314" viewBox="0 0 575 314" fill="none" xmlns="http://www.w3.org/2000/svg">
<path d="M394.219 268.636C447.878 268.003 501.537 268.366 555.193 269.725C559.809 269.842 564.598 269.992 568.675 271.215C572.751 272.437 575.888 275.059 574.772 277.578C553.827 278.198 532.86 278.389 511.871 278.153C507.3 280.391 502.282 283.763 505.091 286.783C507.035 288.872 511.833 289.494 516.029 289.499C523.629 289.508 531.259 288.26 538.746 288.992C546.234 289.724 553.705 293.662 551.511 297.75C549.846 300.854 543.527 302.391 537.776 302.665C532.026 302.94 526.138 302.369 520.517 303.104C515.175 303.803 510.547 305.618 505.548 306.885C497.662 308.884 488.921 309.502 480.32 310.027C414.279 314.062 347.69 314.03 281.26 313.993C254.367 313.978 227.108 313.938 201.138 310.012C186.334 307.774 172.148 304.299 157.158 302.496C139.253 300.342 120.747 300.634 102.436 300.699C70.2901 300.812 38.1715 300.193 6.08002 298.84C3.69189 298.74 0.760526 298.399 0.116037 297.103C-0.636102 295.591 2.41639 294.41 4.99659 293.807C19.6171 290.423 34.4833 288.206 49.455 287.176C57.0373 286.643 64.8507 286.371 71.8244 284.616C78.7982 282.861 84.8907 279.18 84.8253 274.887C84.8053 273.578 84.2527 272.177 85.3457 271.02C86.797 269.484 90.3679 269.132 93.4489 268.964C127.603 267.108 161.943 266.333 196.253 266.644C208.321 266.754 220.439 266.996 232.423 266.184C242.241 265.517 251.858 264.15 261.535 263.002C274.524 261.461 331.051 253.478 339.297 259.955C345.47 264.804 332.725 265.851 349.281 267.829C363.697 269.552 379.598 268.809 394.219 268.636Z" fill="#F2F2F2"/>
<path d="M185.317 246.49C185.317 246.49 165.417 285.864 182.353 285.864C199.289 285.864 412.679 286.71 418.606 275.703C422.759 267.991 420.469 240.536 418.726 224.788C418.387 221.727 416.889 218.913 414.539 216.923C412.189 214.933 409.166 213.919 406.091 214.089C359.941 216.636 187.531 226.076 188.281 224.898C189.762 222.569 188.704 223.204 188.704 223.204C188.704 223.204 181.93 244.796 185.317 246.49Z" fill="#F9D479"/>
<path opacity="0.1" d="M419.15 224.788C418.811 221.727 417.313 218.913 414.963 216.923C412.613 214.933 409.589 213.919 406.515 214.089C360.364 216.636 187.954 226.076 188.704 224.898C190.186 222.569 189.127 223.204 189.127 223.204C189.127 223.204 187.615 228.025 186.377 233.289C186.553 233.271 186.684 233.436 186.112 234.442C186.061 234.669 186.011 234.896 185.962 235.123C192.867 235.806 358.463 226.739 403.551 224.25C406.626 224.08 409.649 225.094 411.999 227.084C414.349 229.073 415.847 231.888 416.186 234.949C417.482 246.657 419.079 264.835 418.107 276.561C418.482 276.357 418.799 276.062 419.03 275.703C423.183 267.991 420.893 240.536 419.15 224.788Z" fill="black"/>
<path d="M209.035 187.482C206.829 186.806 204.038 185.933 204.289 184.51C204.423 183.754 205.435 183.164 206.168 182.529C207.582 181.307 207.963 179.585 206.445 178.405C204.926 177.224 201.269 177.066 199.929 178.316C199.24 178.958 199.282 179.764 198.926 180.49C197.816 182.755 193.325 183.749 189.51 184.629C185.695 185.508 181.427 187.145 181.786 189.488C182.177 192.043 188.062 194.31 185.694 196.489C184.835 197.279 183.029 197.72 182.645 198.624C182.374 199.26 182.917 199.907 183.445 200.488L187.193 204.617C188.684 206.259 190.22 208.047 189.721 209.875C188.731 213.499 180.685 214.886 174.308 214.479C171.972 214.33 169.227 214.126 167.623 215.107C166.386 215.863 166.388 217.041 166.799 218.049C167.857 220.644 171.242 222.891 175.574 223.875C170.719 224.833 168.812 228.87 172.164 231.094C170.246 231.754 168.172 231.814 166.219 231.265C164.561 232.791 165.536 234.885 167.638 236.221C169.741 237.556 172.72 238.307 175.604 239.02L172.905 241.544C174.858 243.069 179.077 242.532 181.921 241.567C184.766 240.603 187.853 239.309 191.04 239.813C194.029 240.286 196.29 242.28 199.334 241.939C201.692 241.674 202.815 240.158 203.55 238.85L206.673 233.289C211.12 233.984 215.796 230.937 214.01 228.508C218.986 229.042 223.884 225.811 222.25 223.071C224.9 225.115 226.766 227.489 227.679 229.979C228.087 231.092 228.335 232.268 229.446 233.211C230.172 233.751 231.014 234.116 231.905 234.277C232.795 234.438 233.711 234.391 234.581 234.14C233.673 235.899 232.938 237.952 234.803 239.445C236.668 240.938 242.049 240.514 241.811 238.685C244.655 239.907 247.841 241.055 251.395 241.146C254.948 241.237 258.838 239.885 259.161 237.86C264.169 239.511 269.409 240.355 274.682 240.358C275.131 239.003 278.263 238.565 280.606 238.896C282.948 239.227 285.121 240.023 287.533 240.024C289.946 240.025 292.541 238.573 291.306 237.389C296.386 238.451 301.602 238.715 306.764 238.169C311.633 237.652 316.248 236.423 321.178 236.158C326.18 235.854 331.188 236.645 335.853 238.476C337.469 239.153 339.478 240.007 341.254 239.475C342.261 239.173 342.751 238.522 343.435 238.003C346.38 235.769 352.403 236.197 357.049 237.076C361.696 237.954 367.101 239.012 371.172 237.459C372.708 236.873 373.84 235.968 375.474 235.476C381.327 233.714 388.333 238.229 394.546 236.93C396.57 236.507 398.211 235.495 400.354 235.37C404.156 235.149 406.668 237.725 410.364 238.279C414.199 238.854 418.356 236.521 417.421 234.318C421.107 234.4 424.782 233.889 428.306 232.805L426.565 229.672C430.903 229.602 434.095 226.492 432.085 224.293C436.435 223.465 439.875 221.235 440.77 218.664C441.664 216.093 439.978 213.28 436.512 211.564C434.467 210.55 431.781 209.838 430.612 208.442C429.77 207.438 429.893 206.269 429.566 205.17C428.849 202.766 425.742 200.644 421.73 199.816C419.987 199.457 418.08 199.32 416.502 198.765C414.924 198.21 413.784 197.008 414.695 196.085C415.177 195.597 416.105 195.31 416.706 194.866C419.139 193.069 414.966 190.794 411.403 189.785L419.911 189.507L421.738 181.224C418.372 183.962 409.64 183.386 407.453 180.282C410.186 181.179 413.851 180.032 415.188 178.401C416.524 176.769 416.195 174.872 415.839 173.082C415.805 172.637 415.657 172.209 415.408 171.839C415.16 171.469 414.82 171.169 414.421 170.97C413.588 170.573 412.261 170.407 411.988 169.808C411.709 169.196 412.787 168.655 412.947 168.029C413.253 166.828 410.493 166.299 408.629 165.718C404.23 164.348 402.1 160.497 397.096 160.623C392.13 160.747 390.742 164.538 390.739 167.379C390.736 170.22 389.055 174.02 384.086 173.968C382.101 173.947 380.371 173.234 378.787 172.551L364.554 166.413C362.673 165.538 360.717 164.836 358.709 164.317C355.838 163.647 352.667 163.568 349.568 163.498L329.658 163.045C328.644 162.966 327.624 163.053 326.638 163.305C325.592 163.654 325.084 164.342 324.454 164.934C321.682 167.537 315.164 168.556 310.459 167.123C309.212 166.743 308.095 166.219 306.773 165.932C302.61 165.03 298.242 166.699 293.916 167.302C286.826 168.291 278.015 166.589 272.903 169.567C271.199 170.56 270.295 171.917 268.715 172.975C267.136 174.034 264.287 174.751 262.295 173.952C262.545 175.894 262.773 177.92 261.458 179.716C260.144 181.513 256.772 182.978 253.46 182.526C251.702 182.061 251.84 180.583 252.672 179.583C253.503 178.583 254.778 177.562 254.364 176.48C253.952 175.407 252.07 174.783 250.663 174.035C249.256 173.287 248.317 171.87 249.812 171.179C248.805 169.885 245.185 170.043 243.593 171.128C242 172.214 241.841 173.742 241.667 175.155C241.494 176.569 241.115 178.117 239.27 179.062C236.126 180.674 230.09 179.838 228.004 181.937C227.342 182.604 227.303 183.409 226.924 184.144C225.232 187.428 217.929 188.278 211.959 188.546C211.833 189.23 211.805 189.927 211.876 190.618C213.918 189.734 210.515 187.936 209.035 187.482Z" fill="#61AB43"/>
<path opacity="0.1" d="M415.839 183.732C416.195 185.521 416.524 187.419 415.188 189.05C414.989 189.286 414.765 189.498 414.519 189.683C416.316 189.625 418.114 189.566 419.911 189.507C420.52 186.746 421.129 183.985 421.738 181.224C420.344 182.358 418.028 182.922 415.639 182.975C415.724 183.222 415.791 183.475 415.839 183.732Z" fill="black"/>
<path opacity="0.1" d="M417.409 193.488C417.197 192.368 415.351 191.232 413.284 190.42C411.464 191.284 409.395 191.466 407.453 190.932C408.961 193.072 413.582 194.01 417.409 193.488Z" fill="black"/>
<path opacity="0.1" d="M420.051 199.523C420.004 199.734 419.958 199.946 419.911 200.157C417.075 200.249 414.239 200.342 411.403 200.435C414.966 201.444 419.139 203.719 416.706 205.516C416.105 205.959 415.177 206.247 414.695 206.735C413.784 207.657 414.924 208.859 416.502 209.415C418.08 209.97 419.987 210.106 421.73 210.466C425.742 211.293 428.849 213.416 429.565 215.82C429.893 216.918 429.77 218.087 430.612 219.092C431.781 220.487 434.467 221.2 436.512 222.213C436.709 222.311 436.899 222.413 437.084 222.517C438.933 221.472 440.262 220.123 440.77 218.664C441.664 216.093 439.977 213.28 436.512 211.564C434.467 210.55 431.781 209.838 430.612 208.442C429.77 207.438 429.893 206.269 429.565 205.17C428.849 202.766 425.742 200.644 421.73 199.816C421.181 199.703 420.616 199.612 420.051 199.523Z" fill="black"/>
<path opacity="0.1" d="M170.788 237.666C171.45 236.256 173.142 235.004 175.573 234.525C173.25 234.042 171.061 233.055 169.162 231.633C168.168 231.662 167.175 231.538 166.219 231.265C164.561 232.791 165.535 234.886 167.638 236.221C168.63 236.821 169.686 237.306 170.788 237.666Z" fill="black"/>
<path opacity="0.1" d="M185.795 196.385C187.007 195.931 188.248 195.562 189.51 195.278C193.325 194.398 197.816 193.404 198.926 191.14C199.282 190.414 199.24 189.608 199.929 188.965C201.269 187.716 204.926 187.874 206.445 189.054C207.963 190.235 207.582 191.957 206.168 193.179C205.435 193.813 204.423 194.403 204.289 195.159C204.037 196.583 206.829 197.456 209.035 198.132C210.073 198.466 211.045 198.979 211.908 199.647C211.926 199.496 211.944 199.345 211.959 199.196C217.929 198.928 225.232 198.078 226.924 194.794C227.303 194.058 227.342 193.254 228.004 192.587C230.089 190.487 236.126 191.324 239.27 189.712C241.115 188.766 241.494 187.218 241.667 185.805C241.841 184.392 242 182.863 243.592 181.778C245.185 180.692 248.805 180.534 249.812 181.829C248.317 182.519 249.256 183.937 250.663 184.685C252.07 185.433 253.952 186.057 254.364 187.13C254.778 188.211 253.503 189.233 252.671 190.233C251.84 191.233 251.701 192.71 253.459 193.175C256.772 193.628 260.144 192.162 261.458 190.366C262.773 188.57 262.545 186.544 262.295 184.602C264.286 185.401 267.136 184.683 268.715 183.625C270.295 182.567 271.199 181.209 272.903 180.217C278.014 177.239 286.826 178.94 293.916 177.952C298.241 177.349 302.61 175.68 306.773 176.582C308.094 176.868 309.212 177.392 310.459 177.772C315.163 179.206 321.682 178.186 324.454 175.583C325.084 174.992 325.592 174.304 326.638 173.955C327.624 173.703 328.644 173.615 329.658 173.695C336.295 173.846 342.931 173.996 349.568 174.147C352.666 174.218 355.838 174.297 358.709 174.967C360.717 175.486 362.673 176.187 364.554 177.062C369.298 179.108 374.042 181.154 378.787 183.2C380.371 183.884 382.101 184.597 384.086 184.618C389.055 184.67 390.735 180.87 390.739 178.029C390.742 175.187 392.13 171.396 397.096 171.272C402.1 171.147 404.23 174.998 408.628 176.368C410.492 176.949 413.253 177.478 412.946 178.679C412.804 179.236 411.936 179.727 411.945 180.26C413.183 179.968 414.31 179.322 415.187 178.401C416.524 176.769 416.195 174.872 415.839 173.082C415.805 172.638 415.657 172.209 415.408 171.839C415.159 171.469 414.819 171.169 414.421 170.97C413.588 170.573 412.261 170.407 411.988 169.808C411.709 169.196 412.786 168.655 412.946 168.029C413.253 166.829 410.492 166.299 408.628 165.718C404.23 164.348 402.1 160.497 397.096 160.623C392.13 160.747 390.742 164.538 390.739 167.379C390.735 170.22 389.055 174.02 384.086 173.968C382.101 173.948 380.371 173.234 378.787 172.551C374.042 170.505 369.298 168.459 364.554 166.413C362.673 165.538 360.717 164.836 358.709 164.317C355.838 163.647 352.666 163.568 349.568 163.498C342.931 163.347 336.295 163.196 329.658 163.045C328.644 162.966 327.624 163.053 326.638 163.305C325.592 163.654 325.084 164.342 324.454 164.934C321.682 167.537 315.163 168.556 310.459 167.123C309.212 166.743 308.094 166.219 306.773 165.932C302.61 165.03 298.241 166.699 293.916 167.302C286.826 168.291 278.014 166.589 272.903 169.567C271.199 170.56 270.295 171.917 268.715 172.976C267.136 174.034 264.286 174.751 262.295 173.952C262.545 175.894 262.773 177.92 261.458 179.716C260.143 181.513 256.772 182.979 253.459 182.526C251.701 182.061 251.84 180.583 252.671 179.583C253.503 178.583 254.778 177.562 254.364 176.48C253.952 175.407 252.07 174.783 250.663 174.035C249.256 173.287 248.317 171.87 249.812 171.179C248.805 169.885 245.185 170.043 243.592 171.128C242 172.214 241.841 173.742 241.667 175.155C241.494 176.569 241.115 178.117 239.27 179.062C236.126 180.674 230.089 179.838 228.004 181.937C227.342 182.604 227.303 183.409 226.924 184.144C225.232 187.428 217.929 188.278 211.959 188.546C211.944 188.696 211.926 188.846 211.908 188.997C211.045 188.329 210.073 187.816 209.035 187.482C206.829 186.806 204.037 185.933 204.289 184.51C204.423 183.754 205.435 183.164 206.168 182.529C207.582 181.307 207.963 179.585 206.445 178.405C204.926 177.224 201.269 177.066 199.929 178.316C199.24 178.958 199.282 179.764 198.926 180.49C197.816 182.755 193.325 183.749 189.51 184.629C185.695 185.508 181.427 187.145 181.785 189.488C182.17 192.002 187.87 194.238 185.795 196.385Z" fill="black"/>
<path opacity="0.1" d="M175.573 223.875C174.524 224.069 173.522 224.461 172.621 225.031C173.192 225.056 173.761 225.093 174.308 225.128C180.685 225.536 188.731 224.149 189.721 220.525C190.22 218.696 188.684 216.909 187.192 215.266C186.593 214.606 185.994 213.945 185.394 213.285C182.274 214.345 178.011 214.715 174.308 214.479C171.972 214.33 169.227 214.126 167.623 215.107C166.386 215.863 166.388 217.041 166.799 218.049C167.857 220.644 171.242 222.891 175.573 223.875Z" fill="black"/>
<path d="M305.456 207.303C340.531 207.303 368.965 188.537 368.965 165.389C368.965 142.24 340.531 123.475 305.456 123.475C270.381 123.475 241.947 142.24 241.947 165.389C241.947 188.537 270.381 207.303 305.456 207.303Z" fill="#EA565C"/>
<path opacity="0.2" d="M283.863 162.425C283.863 162.425 255.072 165.389 263.54 153.111C272.008 140.833 282.593 136.599 287.673 139.986C292.754 143.373 294.871 152.687 294.024 152.687C293.178 152.687 280.899 145.49 276.665 150.994C272.431 156.498 283.863 162.425 283.863 162.425Z" fill="white"/>
<path opacity="0.2" d="M308.809 163.625C308.809 163.625 332.584 180.13 318.161 183.93C303.738 187.73 292.949 184.047 291.301 178.168C289.652 172.289 294.114 163.843 294.756 164.394C295.399 164.946 300.026 178.404 306.824 176.986C313.622 175.568 308.809 163.625 308.809 163.625Z" fill="white"/>
<path opacity="0.2" d="M314.36 153.281C314.36 153.281 316.236 124.401 326.931 134.796C337.626 145.191 340.037 156.333 335.85 160.778C331.664 165.223 322.127 165.758 322.268 164.923C322.409 164.088 331.552 153.182 326.831 148.09C322.109 142.998 314.36 153.281 314.36 153.281Z" fill="white"/>
<path d="M228.822 203.916C263.897 203.916 292.331 185.15 292.331 162.002C292.331 138.853 263.897 120.088 228.822 120.088C193.747 120.088 165.313 138.853 165.313 162.002C165.313 185.15 193.747 203.916 228.822 203.916Z" fill="#EA565C"/>
<path opacity="0.2" d="M207.229 159.038C207.229 159.038 178.438 162.002 186.906 149.724C195.374 137.446 205.958 133.212 211.039 136.599C216.12 139.986 218.237 149.3 217.39 149.3C216.543 149.3 204.265 142.103 200.031 147.607C195.797 153.111 207.229 159.038 207.229 159.038Z" fill="white"/>
<path opacity="0.2" d="M232.175 160.238C232.175 160.238 255.95 176.743 241.527 180.543C227.104 184.343 216.315 180.66 214.666 174.781C213.018 168.902 217.479 160.456 218.122 161.007C218.764 161.559 223.392 175.018 230.189 173.599C236.987 172.181 232.175 160.238 232.175 160.238Z" fill="white"/>
<path opacity="0.2" d="M237.725 149.894C237.725 149.894 239.602 121.014 250.297 131.409C260.992 141.804 263.403 152.946 259.216 157.391C255.03 161.836 245.492 162.371 245.634 161.536C245.775 160.701 254.918 149.795 250.197 144.703C245.475 139.611 237.725 149.894 237.725 149.894Z" fill="white"/>
<path opacity="0.1" d="M261.872 126.331C275.706 134.02 284.498 145.533 284.498 158.403C284.498 181.551 256.064 200.317 220.989 200.317C208.971 200.317 197.733 198.113 188.15 194.285C199.198 200.425 213.46 204.127 229.034 204.127C264.109 204.127 292.543 185.362 292.543 162.213C292.543 146.997 280.255 133.675 261.872 126.331Z" fill="black"/>
<path opacity="0.1" d="M338.506 129.295C352.34 136.983 361.132 148.496 361.132 161.367C361.132 184.515 332.698 203.281 297.623 203.281C285.605 203.281 274.366 201.077 264.784 197.249C275.832 203.389 290.094 207.091 305.667 207.091C340.742 207.091 369.176 188.325 369.176 165.177C369.176 149.96 356.889 136.638 338.506 129.295Z" fill="black"/>
<path d="M190.226 153.972C190.226 153.972 244.843 95.5464 378.636 119.679C484.399 138.755 397.549 171.59 356.519 184.509C344.615 188.256 332.283 190.477 319.82 191.117C273.531 193.5 157.102 195.631 190.226 153.972Z" fill="#714B4F"/>
<path opacity="0.1" d="M356.519 171.385C344.615 175.132 332.283 177.352 319.82 177.992C282.321 179.923 198.795 181.687 186.034 160.139C169.92 194.967 276.122 192.944 319.82 190.693C332.283 190.053 344.615 187.833 356.519 184.086C386.594 174.616 441.282 154.447 426.695 136.838C416.873 150.657 379.507 164.147 356.519 171.385Z" fill="black"/>
<path opacity="0.1" d="M306.87 119.89L321.689 149.103" stroke="black" stroke-width="2" stroke-miterlimit="10"/>
<path opacity="0.1" d="M261.144 130.475L273.846 155.03" stroke="black" stroke-width="2" stroke-miterlimit="10"/>
<path opacity="0.1" d="M333.544 119.89L353.444 149.103" stroke="black" stroke-width="2" stroke-miterlimit="10"/>
<path opacity="0.1" d="M261.144 157.571L394.513 140.636" stroke="black" stroke-width="2" stroke-miterlimit="10"/>
<path opacity="0.1" d="M389.432 125.394L398.747 138.519" stroke="black" stroke-width="2" stroke-miterlimit="10"/>
<path opacity="0.1" d="M234.894 140.636L240.821 152.913" stroke="black" stroke-width="2" stroke-miterlimit="10"/>
<path d="M254.802 100.861C254.802 100.861 376.595 100.31 377.712 99.2081C378.829 98.1062 404.529 97.5224 409.557 104.685C414.585 111.848 416.261 115.154 409.557 116.255C402.853 117.357 182.173 230.307 182.173 230.307C182.173 230.307 169.882 231.409 176.028 219.288C182.173 207.166 254.802 100.861 254.802 100.861Z" fill="#FBC02D"/>
<path d="M305.934 151.24C305.934 155.8 283.945 166.905 256.82 166.905C229.696 166.905 207.707 155.8 207.707 151.24C207.707 146.681 229.696 144.89 256.82 144.89C283.945 144.89 305.934 146.681 305.934 151.24Z" fill="#61AB43"/>
<path d="M256.82 159.284C283.945 159.284 305.934 155.588 305.934 151.029C305.934 146.469 283.945 142.773 256.82 142.773C229.696 142.773 207.707 146.469 207.707 151.029C207.707 155.588 229.696 159.284 256.82 159.284Z" fill="#61AB43"/>
<path d="M365.209 143.62C365.209 148.179 343.22 159.284 316.095 159.284C288.971 159.284 266.982 148.179 266.982 143.62C266.982 139.06 288.971 137.269 316.095 137.269C343.22 137.269 365.209 139.06 365.209 143.62Z" fill="#61AB43"/>
<path d="M316.095 151.664C343.22 151.664 365.209 147.967 365.209 143.408C365.209 138.848 343.22 135.152 316.095 135.152C288.971 135.152 266.982 138.848 266.982 143.408C266.982 147.967 288.971 151.664 316.095 151.664Z" fill="#61AB43"/>
<path d="M424.484 135.999C424.484 140.558 402.495 151.664 375.37 151.664C348.246 151.664 326.257 140.558 326.257 135.999C326.257 131.439 348.246 129.648 375.37 129.648C402.495 129.648 424.484 131.439 424.484 135.999Z" fill="#61AB43"/>
<path d="M375.37 144.043C402.495 144.043 424.484 140.347 424.484 135.787C424.484 131.228 402.495 127.531 375.37 127.531C348.246 127.531 326.257 131.228 326.257 135.787C326.257 140.347 348.246 144.043 375.37 144.043Z" fill="#61AB43"/>
<path d="M194.494 138.344C194.494 138.344 174.295 135.056 184.629 118.615C194.964 102.175 198.44 83.7448 202.95 79.6274C207.992 75.0241 312.058 -5.68531 393.131 83.6241C401.72 93.1986 408.702 104.101 413.805 115.907C414.786 118.139 415.867 120.142 416.924 121.199C420.213 124.487 423.031 133.882 416.924 138.579C410.818 143.277 230.901 161.596 194.494 138.344Z" fill="#F9D479"/>
<path d="M289.15 69.9978C287.906 70.8634 286.438 71.3526 284.923 71.407C282.588 71.407 280.695 70.7761 280.695 69.9978C280.695 69.2195 282.588 68.5886 284.923 68.5886C286.438 68.643 287.906 69.1322 289.15 69.9978Z" fill="#F2F2F2"/>
<path d="M255.328 61.0728C254.083 61.9384 252.615 62.4276 251.1 62.482C248.765 62.482 246.872 61.8511 246.872 61.0728C246.872 60.2945 248.765 59.6636 251.1 59.6636C252.615 59.718 254.083 60.2072 255.328 61.0728Z" fill="#F2F2F2"/>
<path d="M347.207 74.0784C345.761 74.5329 344.214 74.5616 342.752 74.1611C340.523 73.464 338.905 72.2968 339.137 71.554C339.37 70.8112 341.365 70.7742 343.593 71.4713C345.023 71.9756 346.278 72.8806 347.207 74.0784Z" fill="#F2F2F2"/>
<path d="M284.73 50.1219C283.283 50.5764 281.737 50.6051 280.274 50.2046C278.046 49.5075 276.428 48.3402 276.66 47.5974C276.892 46.8547 278.887 46.8176 281.116 47.5147C282.546 48.0191 283.8 48.9241 284.73 50.1219Z" fill="#F2F2F2"/>
<path d="M352.845 58.5772C351.398 59.0316 349.851 59.0603 348.389 58.6599C346.16 57.9628 344.542 56.7955 344.775 56.0527C345.007 55.3099 347.002 55.2729 349.23 55.97C350.66 56.4743 351.915 57.3794 352.845 58.5772Z" fill="#F2F2F2"/>
<path d="M338.945 57.3149C337.7 58.1805 336.232 58.6697 334.717 58.7241C332.382 58.7241 330.489 58.0932 330.489 57.3149C330.489 56.5366 332.382 55.9057 334.717 55.9057C336.232 55.9601 337.7 56.4493 338.945 57.3149Z" fill="#F2F2F2"/>
<path d="M298.545 48.8597C297.301 49.7253 295.833 50.2145 294.318 50.2689C291.983 50.2689 290.09 49.638 290.09 48.8597C290.09 48.0814 291.983 47.4505 294.318 47.4505C295.833 47.5049 297.301 47.9941 298.545 48.8597Z" fill="#F2F2F2"/>
<path d="M329.55 48.8597C328.305 49.7253 326.837 50.2145 325.322 50.2689C322.987 50.2689 321.094 49.638 321.094 48.8597C321.094 48.0814 322.987 47.4505 325.322 47.4505C326.837 47.5049 328.305 47.9941 329.55 48.8597Z" fill="#F2F2F2"/>
<path d="M317.806 67.1794C316.561 68.045 315.093 68.5342 313.578 68.5886C311.243 68.5886 309.35 67.9576 309.35 67.1794C309.35 66.4011 311.243 65.7701 313.578 65.7701C315.093 65.8245 316.561 66.3137 317.806 67.1794Z" fill="#F2F2F2"/>
<path d="M283.647 63.8874C284 62.4127 284.769 61.0707 285.863 60.0213C287.606 58.4669 289.438 57.6775 289.956 58.2582C290.474 58.839 289.482 60.5699 287.74 62.1243C286.573 63.0925 285.152 63.7045 283.647 63.8874Z" fill="#F2F2F2"/>
<path d="M262.508 58.7203C262.86 57.2456 263.63 55.9036 264.724 54.8542C266.466 53.2997 268.299 52.5104 268.817 53.0911C269.335 53.6718 268.343 55.4028 266.601 56.9572C265.434 57.9254 264.013 58.5374 262.508 58.7203Z" fill="#F2F2F2"/>
<path d="M225.867 84.086C226.22 82.6114 226.989 81.2693 228.083 80.2199C229.826 78.6655 231.658 77.8761 232.176 78.4569C232.694 79.0376 231.702 80.7685 229.96 82.3229C228.793 83.2911 227.372 83.9032 225.867 84.086Z" fill="#F2F2F2"/>
<path d="M307.135 55.9018C307.487 54.4272 308.257 53.0851 309.351 52.0358C311.093 50.4813 312.926 49.692 313.444 50.2727C313.962 50.8534 312.97 52.5843 311.228 54.1388C310.061 55.1069 308.64 55.719 307.135 55.9018Z" fill="#F2F2F2"/>
<path d="M298.679 72.8123C299.032 71.3377 299.801 69.9956 300.896 68.9463C302.638 67.3918 304.47 66.6025 304.988 67.1832C305.507 67.7639 304.514 69.4948 302.772 71.0493C301.605 72.0174 300.184 72.6295 298.679 72.8123Z" fill="#F2F2F2"/>
</svg>
